<svg width="293" height="143" viewBox="0 0 293 143" fill="none" xmlns="http://www.w3.org/2000/svg">
<path d="M9.65969 87.3282C10.1061 86.9932 10.5671 86.5311 11.0233 85.8965C13.3947 82.5986 16.8904 80.754 20.4967 80.8536C18.4756 79.8916 15.4304 77.9013 13.3487 74.0941C12.6532 72.8219 12.0829 71.5755 11.6179 70.3988C10.9264 70.6739 10.2189 70.8681 9.59598 70.8681C9.37432 70.8681 9.16328 70.8436 8.96816 70.7903L8.92569 70.7774L8.88941 70.7588C8.47573 70.5379 8.35893 70.2327 8.33415 70.0149C8.27044 69.4719 8.70801 68.9685 8.92215 68.7574C9.01816 68.4148 9.35441 67.3986 10.2433 66.1197C9.67561 63.8446 9.56633 62.3618 9.56456 62.333L9.45573 60.6671L10.38 62.0543C10.3888 62.0681 10.9016 62.8128 12.1634 63.9264C12.2528 63.8446 12.3457 63.7598 12.4413 63.6762C14.3973 61.9517 16.3829 60.6355 17.4594 59.9654C16.7214 59.7899 15.6697 59.5415 14.822 59.3713C13.2262 59.0501 12.1625 58.6439 11.4759 58.092C11.3334 57.9761 11.1786 57.8499 11.0206 57.7219C10.5282 57.3198 9.91364 56.8212 9.71278 56.7057C9.46059 56.563 9.2907 56.3648 9.19956 56.2378C8.56112 55.9618 5.4508 54.5008 3.52798 51.6858L3.37003 51.4539L3.54081 51.2303C3.61337 51.1357 4.02838 50.6905 5.29684 50.8855C5.95518 50.4389 8.74163 48.8055 12.0232 50.6936C14.0628 51.8671 15.4932 52.7665 16.3643 53.3379C16.4117 52.8402 16.532 52.2386 16.7276 51.521V51.5161L16.7391 51.4707C16.7599 51.3961 16.7816 51.3201 16.8019 51.2463L16.8041 51.2441L17.1099 50.1248C16.2949 49.4076 15.6631 48.77 15.3167 48.3127C14.6751 47.4653 13.5872 45.3382 13.4053 44.9845C13.4053 44.9832 13.4053 44.9814 13.4045 44.9814C13.0249 44.5713 10.3977 41.655 9.04559 38.4645L8.94338 38.221L9.13186 38.0348C9.2407 37.9282 9.86852 37.4132 11.5599 37.7696C11.8192 37.7767 13.1032 37.8407 14.5123 38.4179C14.4535 38.1304 14.4535 37.8682 14.4747 37.6562C13.7487 37.4838 12.1391 37.0208 10.434 35.9953C8.66111 34.9301 7.38557 33.6224 6.64096 32.1112C5.43399 29.6583 5.65609 26.7683 7.30018 23.5209C9.21327 19.7373 11.4396 17.5102 13.9155 16.9054C15.933 16.4108 17.47 17.1676 17.9726 17.4671C18.5522 17.3004 19.1548 17.1871 19.7658 17.128C19.7972 15.655 20.7958 14.3375 22.5257 13.4999C24.8087 12.3943 28.2866 12.2957 30.2382 14.2913C30.6041 14.6654 30.9483 15.0142 31.2833 15.3337C31.5841 14.9138 31.8903 14.5228 32.2031 14.1651C33.7936 12.345 35.7709 10.6694 38.8613 8.21475C39.69 7.55667 40.8235 6.51599 42.1627 5.19849C37.8366 2.31952 32.78 0.774504 27.5009 0.774504C20.391 0.774504 13.6863 3.57482 8.62262 8.66C3.55939 13.7474 0.771167 20.4789 0.771167 27.6196V67.3808C0.771167 74.5207 3.55939 81.2544 8.62262 86.3396C8.96108 86.6795 9.30751 87.0088 9.65969 87.3282ZM7.43159 89.0279C7.40902 89.0279 7.38734 89.0266 7.36478 89.0266C9.01241 90.349 10.7751 90.6636 12.0749 90.6636C12.1732 90.6636 12.2665 90.6605 12.3599 90.6587C12.4736 90.6533 12.5882 90.6485 12.7019 90.6387C13.1094 90.6102 13.5093 90.5529 13.8982 90.472C16.0799 90.0201 17.9438 88.8417 18.7632 87.7508C20.2799 85.7299 22.5169 83.0598 24.5936 82.8998C22.9796 81.9325 20.7754 81.549 18.6867 81.8774C16.7979 82.1738 14.0619 83.2015 11.7453 86.4204C11.2834 87.0621 10.8136 87.5558 10.3486 87.9299C10.1278 88.1085 9.90878 88.2592 9.69199 88.3863C8.87569 88.8719 8.09568 89.0279 7.43159 89.0279ZM27.5009 94.2255C27.5633 94.2255 27.6252 94.2255 27.688 94.2233C27.9057 90.9986 28.0322 88.4356 28.0738 87.59C27.4429 86.4178 26.7629 85.3691 26.0515 84.4737C25.6767 84.0125 25.2617 83.7868 24.7861 83.7868H24.7773C22.8456 83.8045 20.3104 87.1785 19.4733 88.2907C18.6858 89.3412 17.0227 90.4863 15.0096 91.1039C18.819 93.1426 23.0818 94.2255 27.5009 94.2255ZM36.8761 63.6691C37.453 63.8024 38.7701 63.9926 40.5567 63.5865C42.9857 63.0337 45.3629 61.606 47.6206 59.3438C51.9817 54.9736 52.0591 50.4403 51.7981 48.362C51.0645 49.3276 49.8018 49.8222 48.1117 50.4865C46.4871 51.1219 44.4661 51.9133 42.1313 53.4494C37.4858 56.5039 36.9398 62.2561 36.8761 63.6691ZM46.3769 86.3396C51.4402 81.2544 54.2284 74.5207 54.2284 67.3808V27.6196C54.2284 27.0051 54.208 26.3941 54.1656 25.7862C54.0527 26.1288 53.9399 26.471 53.8284 26.8118C53.8253 26.8189 53.824 26.8247 53.8213 26.8314C51.6308 33.5211 50.0792 39.0329 49.8686 40.8805C49.8085 41.4026 49.8209 41.922 49.8346 42.4246C49.8819 44.2878 49.931 46.2132 46.3561 48.3452L46.3504 48.3483L46.3044 48.3758C46.2858 48.3878 46.2668 48.3985 46.2477 48.4105C46.2442 48.4123 46.2416 48.4145 46.238 48.4163L46.2163 48.43C46.2159 48.43 46.2159 48.43 46.2159 48.43C46.0411 48.5473 45.7823 48.698 45.4261 48.8913C45.4248 48.8922 45.4239 48.8922 45.423 48.893C45.4186 48.8939 45.4146 48.897 45.4107 48.9002C41.2642 51.3299 37.9919 53.3646 35.4921 55.4024C33.987 56.627 32.15 58.0645 30.8368 59.0816L30.4055 60.2294C30.4245 60.871 30.6723 68.8325 31.0643 73.552C32.8004 68.2846 35.5426 64.4485 35.9779 63.8566C36.0009 62.8871 36.3536 56.1778 41.6429 52.7007C44.0524 51.117 46.1234 50.3052 47.7905 49.652C49.9257 48.8144 51.2141 48.3078 51.5216 46.8317L51.8525 45.2476L52.379 46.7766C52.402 46.8446 54.6394 53.5743 48.2506 59.977C42.6388 65.6003 37.7495 64.8173 36.5943 64.5263C35.8474 65.5612 32.7681 70.0678 31.2872 75.9644L31.2806 75.9897C31.1293 76.6225 28.9724 85.6424 28.9684 87.5055C28.9676 87.5518 28.8379 90.4094 28.5849 94.2028C35.2882 93.9336 41.5721 91.1648 46.3769 86.3396ZM17.1138 53.8374C17.1364 53.8525 17.159 53.868 17.1775 53.8818C17.1983 53.8769 17.2209 53.8729 17.2444 53.8689C17.2926 53.8591 17.3466 53.8502 17.4072 53.8405C17.4988 53.8236 17.6045 53.808 17.7253 53.7911C17.7642 53.7854 17.8045 53.7805 17.8487 53.7747C17.8921 53.7694 17.9363 53.7636 17.9823 53.7587C17.9784 53.7569 17.9726 53.7547 17.9686 53.752C17.9469 53.744 17.9244 53.7343 17.9049 53.7232C17.8673 53.7067 17.831 53.6876 17.797 53.6681C17.7664 53.6525 17.7368 53.6356 17.7085 53.6179C17.6779 53.6001 17.6496 53.5823 17.6231 53.5628C17.6036 53.5508 17.585 53.537 17.5651 53.5223C17.5465 53.5085 17.5271 53.4939 17.5085 53.4779C17.5076 53.477 17.5054 53.4761 17.5045 53.4761C17.485 53.4601 17.4673 53.4454 17.4496 53.4308C17.428 53.4108 17.4054 53.3912 17.3828 53.3703C17.3669 53.3557 17.3505 53.3388 17.3337 53.3224C17.2766 53.265 17.22 53.201 17.1669 53.13C17.1289 53.3992 17.1112 53.6356 17.1138 53.8374ZM21.3033 53.2926C21.1373 53.3952 20.9648 53.4877 20.7883 53.5685C20.7617 53.605 20.7352 53.6423 20.7077 53.6778C21.1718 53.7027 21.6329 53.7458 22.093 53.8089C21.8466 53.6503 21.5829 53.4779 21.3033 53.2926ZM17.4974 51.6214V51.6325C17.4988 51.6343 17.4988 51.6365 17.4988 51.6383V51.6698C17.4988 51.7054 17.4988 51.7418 17.5005 51.7751C17.5005 51.796 17.5014 51.8178 17.5023 51.8382C17.5054 51.8844 17.5111 51.9298 17.516 51.9733C17.5213 52.0088 17.5262 52.0422 17.5328 52.0746C17.5439 52.1359 17.5585 52.1941 17.5753 52.2501C17.5859 52.2857 17.5987 52.3181 17.6102 52.3506C17.6288 52.3999 17.6496 52.4461 17.6744 52.4914C17.7271 52.5932 17.7908 52.6829 17.8673 52.7625C17.8961 52.7922 17.9275 52.8207 17.9598 52.8482C17.9899 52.874 18.0226 52.8984 18.0567 52.922C18.5925 53.2886 19.5079 53.2797 20.3879 52.9007C20.4547 52.8718 20.5215 52.8402 20.5861 52.8069C20.4259 52.6967 20.2662 52.5861 20.1113 52.4768C19.9914 52.3919 19.8706 52.3075 19.7512 52.2195C19.5056 52.0431 19.2627 51.8631 19.0203 51.6796C18.9075 51.5952 18.7946 51.5072 18.6827 51.4214C18.5668 51.3308 18.4513 51.241 18.3385 51.1504C18.1469 50.9988 17.9589 50.846 17.7753 50.6936C17.685 50.9793 17.5868 51.2943 17.4974 51.6214ZM9.96674 70.05C9.96187 70.05 9.95523 70.0491 9.94904 70.0474C9.90391 70.0394 9.86188 70.0314 9.81985 70.0216C9.81764 70.0207 9.81454 70.0189 9.811 70.0189C9.77162 70.01 9.73313 69.998 9.69597 69.986C9.68137 69.982 9.66456 69.9763 9.64996 69.9714C9.57828 69.9469 9.50882 69.9163 9.44467 69.8838C9.43228 69.8776 9.42033 69.871 9.40971 69.8638C9.3752 69.8461 9.34379 69.8265 9.31238 69.8061C9.28672 69.7883 9.26238 69.7705 9.23893 69.7505C9.23893 69.7505 9.23804 69.7496 9.23583 69.7488C9.21814 69.735 9.20265 69.7212 9.18672 69.7065C9.18186 69.7003 9.17611 69.6945 9.17124 69.6905C9.12213 69.7812 9.0916 69.863 9.10045 69.9243C9.10443 69.9665 9.14248 70.01 9.21415 70.0531C9.44864 70.1096 9.7234 70.1065 10.0229 70.0602C10.0039 70.0571 9.98443 70.054 9.96674 70.05ZM21.2356 74.694C20.6546 73.0259 19.9583 71.6239 19.1535 70.4975C18.3491 69.3724 17.4359 68.5219 16.4192 67.9562C16.3489 67.9171 16.2798 67.8785 16.2113 67.8403C15.4892 68.2597 15.041 68.4895 14.9123 68.5526C14.9123 68.5526 14.9105 68.5534 14.9096 68.5557C14.6601 68.733 13.6359 69.447 12.4302 70.0354C12.8855 71.1871 13.4447 72.4091 14.1305 73.6635C16.7342 78.4274 21.0413 80.2142 22.6071 80.7252C22.4726 79.6072 22.1049 77.1872 21.2356 74.694ZM29.5197 60.2392C29.5157 60.2196 29.506 60.1792 29.4923 60.1192C29.3118 60.2578 29.1901 60.3516 29.1467 60.384C28.9264 60.604 27.008 62.476 24.9489 63.2003C22.8571 63.9371 19.8583 65.5474 17.9784 66.7551C17.6602 66.9591 17.3643 67.1444 17.0926 67.3119C22.2518 70.4268 23.3557 79.0926 23.5389 81.0367C24.2003 81.3717 26.1369 82.5857 28.2287 86.057C28.718 82.8594 30.271 76.3772 30.4028 75.8311C29.875 71.9194 29.5334 60.8799 29.5197 60.2392ZM30.071 58.5857L30.8519 56.5039L31.6859 56.8181L31.3567 57.697C32.5119 56.7968 33.8565 55.7365 35.0064 54.8003C35.9549 54.0275 37.0119 53.2553 38.1808 52.4639C37.2283 52.9251 36.2947 53.3783 35.4483 53.7983C35.3492 53.8476 35.2528 53.8947 35.1559 53.9431C34.9258 54.0573 34.7028 54.1697 34.4878 54.2782C34.3803 54.3324 34.2755 54.3853 34.1719 54.4377L34.1148 54.4661C34.0538 54.4977 33.9941 54.5292 33.9339 54.5599C33.5162 54.7754 33.1433 54.9709 32.8291 55.1442C32.6292 55.2553 32.4358 55.3588 32.2495 55.4575C32.1243 55.5246 32.0031 55.5877 31.8845 55.6485C31.527 55.8321 31.1948 55.9934 30.882 56.1324C30.7784 56.1787 30.6762 56.2231 30.5771 56.2653C30.2475 56.4035 29.9405 56.5168 29.652 56.6035C29.8011 57.3198 29.9427 57.989 30.071 58.5857ZM10.9392 65.2124C11.1166 64.9995 11.3091 64.7836 11.5197 64.5627C11.1852 64.2654 10.895 63.9873 10.6476 63.7331C10.7193 64.1628 10.8136 64.6587 10.9392 65.2124ZM12.6492 64.5303C12.6138 64.5649 12.5784 64.5974 12.5439 64.6298C12.4656 64.7058 12.3891 64.7804 12.3147 64.8547C12.2793 64.8902 12.2448 64.9235 12.2103 64.96C12.1754 64.9955 12.1417 65.0311 12.1086 65.0666C11.7453 65.4447 11.4356 65.8131 11.1675 66.1682C11.1303 66.2153 11.0949 66.2637 11.0596 66.3108C11.0215 66.3641 10.983 66.4165 10.9481 66.4685C10.8667 66.5827 10.7901 66.6943 10.7193 66.8036C10.683 66.8587 10.6476 66.9138 10.6131 66.9671C10.5782 67.0231 10.5454 67.0773 10.5114 67.1315C9.90878 68.1286 9.69199 68.8601 9.64996 69.0187C9.64996 69.0236 9.65172 69.0293 9.65172 69.0365C9.65305 69.0462 9.65571 69.0569 9.65969 69.0667C9.66057 69.0689 9.66057 69.072 9.66278 69.0747C9.66455 69.0787 9.66677 69.0836 9.67075 69.0884C9.68447 69.1133 9.70703 69.1378 9.74685 69.1644C9.99019 69.332 10.5145 69.3755 11.1795 69.2315C11.2255 69.2226 11.2737 69.2106 11.3206 69.1991C11.3666 69.188 11.4148 69.1751 11.4631 69.1635C11.5582 69.136 11.6551 69.1044 11.7564 69.0707C11.8024 69.0551 11.8484 69.0391 11.8966 69.0213C11.9396 69.0049 11.9838 68.988 12.0289 68.9702C12.1594 68.9191 12.2909 68.8601 12.4262 68.7961C12.6519 68.6876 12.8563 68.5908 13.0395 68.5063C13.1133 68.4717 13.1828 68.4392 13.2496 68.4086C13.7177 68.1949 14.0314 68.0607 14.2424 67.9771C14.257 67.9713 14.273 67.9651 14.2867 67.9593C14.357 67.9318 14.4141 67.9109 14.4623 67.8954C14.4729 67.8914 14.4836 67.8874 14.4924 67.8842C14.5229 67.8736 14.5486 67.8647 14.5689 67.8598C14.6632 67.8114 14.9623 67.659 15.4383 67.3897C15.4852 67.363 15.5326 67.3368 15.5826 67.307C15.6295 67.2813 15.6777 67.2528 15.7286 67.2222C15.8268 67.1671 15.9299 67.1071 16.0387 67.0422C16.0847 67.0155 16.133 66.9858 16.1821 66.9573C16.2281 66.9307 16.275 66.9022 16.3241 66.8725C16.6882 66.6538 17.1014 66.3988 17.5611 66.1028C19.4804 64.8693 22.5461 63.227 24.695 62.4689C25.3166 62.2512 25.9338 61.9073 26.489 61.542C26.405 61.5558 26.3196 61.5673 26.232 61.5776C26.1479 61.5864 26.0603 61.5949 25.974 61.602C25.9692 61.602 25.9652 61.6029 25.9603 61.6029C25.7895 61.6158 25.617 61.6229 25.4413 61.6229H25.4405L24.937 61.606C24.7662 61.5949 24.5936 61.5784 24.418 61.5558H24.4171C24.3503 61.5469 24.2848 61.538 24.218 61.5282C24.1189 61.5131 24.0167 61.4958 23.9149 61.4767C23.8136 61.4589 23.7105 61.4394 23.6079 61.4167C23.5145 61.398 23.4225 61.3763 23.3283 61.3545C23.1517 61.3123 22.965 61.2678 22.769 61.2216C22.708 61.207 22.6465 61.1923 22.5837 61.1785C22.4912 61.1567 22.3961 61.1327 22.3009 61.1114C22.1961 61.0848 22.089 61.0612 21.9819 61.0363C21.6249 60.9506 21.2599 60.867 20.9059 60.783C20.7883 60.7555 20.6706 60.7279 20.5564 60.7013C20.1936 60.6169 19.8503 60.536 19.5481 60.4649C19.5207 60.4591 19.4941 60.452 19.4667 60.4453C19.1986 60.384 18.9654 60.3289 18.7858 60.2867C18.7593 60.2818 18.7318 60.2747 18.707 60.2689C18.6367 60.2529 18.5739 60.2383 18.5248 60.2263C17.9381 60.5684 15.4246 62.0788 12.9501 64.2583C12.8846 64.3157 12.8209 64.3739 12.7581 64.4307C12.7218 64.4645 12.6846 64.4978 12.6492 64.5303ZM4.43851 51.6263C6.35426 54.148 9.31149 55.4446 9.58005 55.5601L9.58315 55.561C9.65394 55.5854 9.74109 55.6054 9.81188 55.613C9.79021 55.553 9.75216 55.4664 9.68446 55.3491C9.61544 55.2326 9.52032 55.0842 9.38493 54.8976C9.26326 54.7332 9.12876 54.5705 8.98099 54.4101C8.94338 54.3675 8.90312 54.3253 8.86198 54.2831C8.8257 54.2453 8.78765 54.2053 8.74915 54.1688C8.70137 54.1204 8.65403 54.0729 8.60492 54.0275C8.55581 53.9796 8.50714 53.9333 8.45671 53.888C8.40583 53.8414 8.35583 53.7974 8.30407 53.752C8.25274 53.7067 8.20098 53.6614 8.14877 53.6179C8.09789 53.5725 8.04392 53.529 7.99083 53.4868C7.93995 53.4423 7.88596 53.4001 7.83199 53.3579C7.48645 53.082 7.1325 52.8278 6.802 52.6047C6.75864 52.5763 6.71749 52.5479 6.67546 52.5203C6.64803 52.5025 6.62237 52.4848 6.59494 52.467C6.59007 52.463 6.58299 52.459 6.57724 52.4563C6.55247 52.4394 6.52813 52.4234 6.5038 52.4079C6.31045 52.2826 6.12994 52.1702 5.96801 52.0719C5.94721 52.06 5.92863 52.0471 5.90828 52.0364C5.8689 52.012 5.83174 51.9902 5.79546 51.9684C5.68441 51.9022 5.5884 51.8462 5.50478 51.8C5.50389 51.7991 5.50301 51.7991 5.5008 51.7969C5.47558 51.7822 5.4508 51.7685 5.42735 51.7565C5.40302 51.7427 5.38134 51.7298 5.36055 51.7191C5.32028 51.6965 5.2871 51.6787 5.26233 51.6658C4.87873 51.5987 4.61504 51.6018 4.43851 51.6263ZM11.6396 51.3654C9.16416 49.9426 7.06481 50.7513 6.13746 51.2699C6.29187 51.3605 6.47106 51.4676 6.66839 51.592C6.71042 51.6187 6.75466 51.6454 6.79802 51.6747C6.80598 51.6796 6.81571 51.6858 6.82545 51.6907C6.85067 51.7085 6.87854 51.7249 6.90464 51.7427C6.93606 51.7636 6.96747 51.784 7.00109 51.804C7.04135 51.8316 7.0825 51.8591 7.12453 51.8867C7.13427 51.8924 7.14312 51.8995 7.15285 51.9053C7.20904 51.944 7.26611 51.9822 7.32496 52.0217C7.55812 52.1813 7.80234 52.3546 8.04701 52.5416C8.09214 52.5763 8.13727 52.6109 8.1824 52.6465L8.31291 52.7487L8.40184 52.8198C8.52174 52.9162 8.64032 53.0166 8.75624 53.1171L9.26725 53.5921C9.323 53.6463 9.37608 53.7005 9.42918 53.7569C9.48227 53.812 9.53404 53.868 9.58536 53.9245C9.58624 53.9245 9.58713 53.9253 9.58713 53.9262C9.63801 53.9813 9.68535 54.0378 9.73313 54.0938C9.77339 54.1409 9.81454 54.1902 9.85303 54.2395L10.007 54.4386C10.4326 55.0229 10.8233 55.6783 10.4906 56.1284C10.476 56.1493 10.4592 56.168 10.4437 56.1858C10.4278 56.2004 10.4132 56.216 10.3986 56.2289C10.3955 56.2311 10.3946 56.2338 10.3915 56.2351C10.6574 56.4302 11.0295 56.7323 11.506 57.1207C11.6621 57.2478 11.8161 57.3731 11.9595 57.4882C12.5364 57.9525 13.523 58.3209 14.9742 58.6124C16.3175 58.8825 18.1597 59.3398 18.4991 59.4242L18.5256 59.4313L18.5522 59.438C18.5668 59.4411 19.3402 59.6215 20.3427 59.8548C21.3453 60.0903 22.5757 60.3782 23.5066 60.6C25.0763 60.9732 26.4147 60.9203 27.5606 60.4302C27.6902 60.3765 27.8155 60.3143 27.9402 60.2489C28.1884 60.1161 28.4287 59.9614 28.6583 59.7841L28.6592 59.7832C28.6694 59.7761 28.9114 59.59 29.3118 59.2825C29.1795 58.6755 28.9959 57.8165 28.7839 56.8043C28.5818 56.835 28.3884 56.8487 28.2021 56.8487C28.165 56.8487 28.1278 56.8487 28.0911 56.847C28.0247 56.8447 27.9588 56.8399 27.8942 56.835C27.7801 56.8252 27.6695 56.8101 27.5606 56.7896C27.4987 56.779 27.4389 56.7652 27.3792 56.751C27.112 56.6861 26.8514 56.5906 26.5873 56.4644C26.182 56.2715 25.8006 56.0711 25.4608 55.8809C25.363 55.8258 25.2688 55.7716 25.1777 55.7196C24.8578 55.5352 24.5857 55.3668 24.3768 55.2357C24.3552 55.222 24.3366 55.2082 24.318 55.1975C24.1623 55.098 24.0494 55.0229 23.9866 54.9807C22.666 54.6239 21.2993 54.4386 19.9237 54.4279C18.2735 54.4168 17.1952 54.6701 17.1846 54.6732L17.0138 54.7136L16.8705 54.611C16.8687 54.6101 16.7519 54.5261 16.5214 54.3706C16.4949 54.3528 16.4674 54.3341 16.4369 54.3137C16.4152 54.2986 16.3927 54.2831 16.3692 54.2671C15.5923 53.7481 14.0442 52.7496 11.6396 51.3654ZM11.4117 38.6458C11.3865 38.6121 11.3617 38.5805 11.3383 38.553C11.3268 38.5365 11.314 38.5214 11.3029 38.5076C10.5848 38.369 10.1446 38.425 9.90303 38.4939C11.0764 41.0707 13.0996 43.4728 13.7774 44.2416C13.788 44.2247 13.7991 44.206 13.8088 44.1833C13.8128 44.1745 13.8164 44.1647 13.8226 44.1549C13.8491 44.0896 13.8752 43.9963 13.8872 43.871C13.8929 43.8225 13.8951 43.7692 13.8951 43.7101C13.8951 43.5528 13.8752 43.3546 13.8203 43.1085C13.8097 43.06 13.7978 43.0098 13.7841 42.9574C13.7752 42.9289 13.7686 42.9005 13.7597 42.8707C13.7429 42.8107 13.7243 42.7485 13.7035 42.6845C13.6832 42.6206 13.6606 42.5535 13.6359 42.4837C13.5744 42.314 13.5075 42.1447 13.4359 41.9762C13.4124 41.922 13.3899 41.8687 13.3651 41.8154C12.8961 40.7703 12.2559 39.7958 11.7944 39.1582C11.771 39.1244 11.7484 39.0911 11.7241 39.0604C11.6024 38.8929 11.4962 38.7542 11.4117 38.6458ZM49.5134 38.6094C49.493 38.6663 49.4727 38.7227 49.4536 38.7787C49.4315 38.8427 49.4085 38.9067 49.3868 38.9689C49.3634 39.0369 49.3404 39.104 49.3174 39.1697C49.2616 39.3323 49.2098 39.4852 49.1607 39.6261C49.1417 39.6821 49.124 39.7363 49.1063 39.7896C49.0099 40.0793 48.9364 40.3108 48.89 40.4677C48.8002 40.7818 48.7227 41.1022 48.6493 41.4124C48.2843 42.9418 47.9078 44.5224 45.7779 45.3333C44.2988 45.895 42.7614 46.1065 40.9814 46.3509C39.8656 46.5055 38.7104 46.6642 37.4176 46.9286C37.257 46.961 37.0938 46.9934 36.9278 47.0259C36.646 47.081 36.3562 47.1374 36.0638 47.1907C35.9832 47.2063 35.9018 47.2218 35.8213 47.2356C34.6931 47.4427 33.5273 47.6369 32.5026 47.7995C32.3203 47.8302 32.1434 47.8577 31.9704 47.8844C31.935 47.8901 31.9009 47.8959 31.8682 47.9008C31.7757 47.9146 31.6846 47.9297 31.5961 47.9435C31.1948 48.0066 30.8315 48.0608 30.5201 48.1079C30.4643 48.1159 30.4095 48.1234 30.3581 48.1323C30.0489 48.179 29.8033 48.2141 29.6356 48.239C29.6188 48.2407 29.6033 48.243 29.5874 48.2456C29.5414 48.2527 29.5051 48.2576 29.4737 48.2616C28.8083 48.7051 28.5132 49.1659 28.511 49.169L28.3167 49.4854L28.2367 49.44L28.0738 49.3485L27.9942 49.305C27.9668 49.2894 27.9385 49.2734 27.9119 49.2579C27.796 49.1939 27.6783 49.1294 27.5584 49.0668C27.5044 49.037 27.4496 49.0086 27.3956 48.9779C27.3425 48.9495 27.2876 48.9206 27.2337 48.893C26.6483 48.5856 26.0183 48.2785 25.3533 47.9719C22.8925 46.8419 20.7215 46.1065 20.6989 46.099L20.5781 46.0572L20.5047 45.951C20.4998 45.943 19.9383 45.124 19.1371 44.0416C19.0986 43.9892 19.0597 43.9381 19.0212 43.8856C18.6593 43.3977 18.3089 42.9387 17.9695 42.5081C17.9115 42.4335 17.8527 42.3593 17.7956 42.2864C17.7293 42.202 17.6625 42.1189 17.5965 42.038C17.224 41.575 16.8687 41.1493 16.532 40.7663C16.5095 40.7396 16.4882 40.7138 16.4643 40.6872C16.4506 40.6725 16.4391 40.6587 16.4254 40.6441C16.3909 40.6054 16.3577 40.569 16.3232 40.5334C16.2909 40.4992 16.2595 40.4677 16.2263 40.4352C15.8737 40.0864 15.4866 39.8007 15.0879 39.5687C14.1088 38.9955 13.074 38.7431 12.3705 38.6307C12.3882 38.6556 12.4068 38.6814 12.4262 38.7076C12.4899 38.7956 12.5568 38.8889 12.6244 38.9884C12.6413 39.0124 12.6559 39.036 12.6727 39.0586C13.0102 39.5483 13.3965 40.1593 13.746 40.828C13.7774 40.8911 13.8097 40.9542 13.8411 41.0173C13.8668 41.0675 13.8929 41.12 13.9177 41.1711C13.9557 41.2511 13.9933 41.3297 14.0305 41.4106C14.0765 41.515 14.1225 41.6185 14.1668 41.7221C14.1893 41.7772 14.2128 41.8314 14.2336 41.8874C14.2513 41.9269 14.2659 41.9683 14.2805 42.0078C14.3092 42.0784 14.3358 42.1504 14.361 42.2224C14.726 43.2431 14.7654 44.0363 14.4747 44.5775C14.411 44.6975 14.3376 44.7921 14.2628 44.8672L14.2464 44.8837C14.2415 44.889 14.2354 44.8948 14.2305 44.8996C14.5827 45.5795 15.4264 47.1778 15.9299 47.8417C16.2033 48.2034 16.7028 48.7158 17.3368 49.2912C17.4094 49.3561 17.4837 49.4232 17.5603 49.4903C17.5987 49.5249 17.6377 49.5591 17.6771 49.5929C17.7293 49.6391 17.7832 49.6853 17.8381 49.7329C18.6721 50.451 19.6109 51.181 20.5529 51.8422C20.8391 52.0431 21.1365 52.247 21.4338 52.4483C21.463 52.467 21.4926 52.4879 21.5209 52.5065C21.5307 52.5132 21.5408 52.5194 21.5492 52.5261C21.5908 52.5527 21.632 52.5803 21.6722 52.6078C21.716 52.6363 21.7585 52.6652 21.8006 52.6936C23.1141 53.5676 24.0933 54.1431 24.3012 54.2631L24.3162 54.2671L24.3711 54.3057C24.3817 54.3137 25.5179 55.098 26.9178 55.765C27.4243 56.0054 27.9097 56.1324 28.5592 56.0587C28.5818 56.0556 28.6043 56.0525 28.6269 56.0485C28.6729 56.0449 28.7193 56.0369 28.768 56.0271H28.7702C28.8162 56.02 28.8636 56.0111 28.9123 55.9996C29.0096 55.9805 29.1105 55.9569 29.2144 55.9285C29.2321 55.9245 29.252 55.9196 29.2706 55.9138C29.2981 55.9058 29.3264 55.8969 29.3538 55.8881C29.4003 55.8752 29.4463 55.8614 29.4941 55.8458C30.2396 55.6072 31.1824 55.1686 32.4588 54.4652C33.9135 53.6632 36.5779 52.3781 39.1551 51.1348C40.9664 50.2608 42.7012 49.4232 43.9763 48.7757C44.0497 48.7384 44.1205 48.7029 44.19 48.6673C44.2568 48.6322 44.3218 48.5993 44.386 48.5669C44.4798 48.5176 44.5696 48.4705 44.6567 48.4243C44.7912 48.3532 44.9165 48.2861 45.0337 48.223C45.0355 48.2221 45.0368 48.2221 45.0381 48.2212C45.297 48.0692 45.5584 47.9168 45.8235 47.7622H45.8243L45.8257 47.7599C45.827 47.7599 45.827 47.7599 45.8283 47.7591C45.831 47.7573 45.8332 47.7559 45.8358 47.7542C45.8849 47.7226 45.9341 47.6929 45.981 47.6684C49.1488 45.7728 49.1076 44.2296 49.063 42.445C49.0492 41.9149 49.0355 41.3684 49.101 40.7916C49.1607 40.2695 49.324 39.4665 49.5744 38.4339C49.5541 38.493 49.5337 38.5521 49.5134 38.6094ZM28.0384 48.3238C28.046 48.3678 28.0539 48.4132 28.0628 48.4585C28.0676 48.4616 28.0716 48.4647 28.0774 48.4665C28.111 48.426 28.1513 48.3816 28.1933 48.3354C28.1424 48.3327 28.0911 48.3287 28.0384 48.3238ZM24.5684 46.7215C24.468 46.6584 24.3689 46.5962 24.2711 46.5331C24.0707 46.406 23.8756 46.282 23.6853 46.1607C23.2703 45.8977 22.8788 45.6506 22.2549 45.2582C22.2549 45.2582 22.2527 45.2582 22.2527 45.2565C21.5944 45.0503 20.9617 44.7637 20.3533 44.398C20.6967 44.8748 20.9511 45.2378 21.0679 45.4071C21.1148 45.4226 21.1745 45.4435 21.2453 45.468C21.2679 45.4769 21.2944 45.4857 21.3201 45.4955C21.3276 45.4986 21.3373 45.5026 21.3475 45.5057C21.3904 45.5213 21.4364 45.5382 21.4855 45.556C21.52 45.5666 21.5546 45.5795 21.5895 45.5924C21.6448 45.6128 21.7045 45.6346 21.7674 45.6582C21.8165 45.6759 21.8682 45.6959 21.9205 45.7146C21.9673 45.7324 22.0173 45.7501 22.0682 45.7688C22.2195 45.827 22.3841 45.8888 22.5611 45.9577C22.6465 45.9905 22.7336 46.0247 22.8248 46.0603C22.8504 46.0701 22.877 46.079 22.9022 46.0901C22.9681 46.1163 23.0349 46.1429 23.1026 46.1696C23.1504 46.1883 23.1978 46.2083 23.2469 46.2269C23.3309 46.2611 23.4163 46.2949 23.5057 46.3322C23.6999 46.41 23.9021 46.4949 24.1118 46.5824C24.1729 46.6082 24.2357 46.634 24.2985 46.6615C24.3114 46.6655 24.3229 46.6713 24.3357 46.6762C24.4454 46.7224 24.5556 46.7708 24.6684 46.8192C24.7242 46.8437 24.7803 46.8672 24.8361 46.8921C24.7458 46.8348 24.6565 46.7775 24.5684 46.7215ZM19.1437 42.2038C18.6093 41.4639 18.2748 40.9298 18.0686 40.5672C17.8359 40.6045 17.6487 40.657 17.5023 40.7098C17.7576 41.0107 18.0213 41.3328 18.296 41.6745C18.3491 41.6914 18.3845 41.7003 18.3973 41.7034L18.5327 41.7319L18.627 41.8332C18.8937 42.1171 19.1654 42.3811 19.4419 42.6214C19.4419 42.6174 19.4433 42.6148 19.4459 42.6108C19.3468 42.4797 19.2477 42.3455 19.1437 42.2038ZM17.3859 37.087C17.1629 36.6493 16.9218 36.2041 16.7059 35.8157C16.6639 35.742 16.6223 35.6691 16.5834 35.6002C16.4723 35.406 16.3723 35.2323 16.2878 35.0879C16.0073 35.0177 15.8073 35.0461 15.6808 35.0879C15.7825 35.5162 15.9378 35.9339 16.1201 36.3343C16.1573 36.4138 16.1967 36.4938 16.236 36.5725C16.2772 36.6565 16.3192 36.7382 16.3626 36.8191C16.4643 37.0102 16.5723 37.1941 16.6825 37.3727C16.7391 37.4652 16.7979 37.5549 16.855 37.6425C16.9187 37.7402 16.9846 37.8358 17.0501 37.9273C17.2386 38.1975 17.4271 38.4428 17.5996 38.6556C17.6319 38.6969 17.6664 38.7374 17.6987 38.7769C17.7332 38.8182 17.7664 38.8596 17.8009 38.8978C17.8872 39.0004 17.9664 39.0911 18.0403 39.171C18.0783 39.2141 18.1155 39.2546 18.1491 39.2901C18.1531 39.2941 18.1558 39.2981 18.1598 39.3021C18.1598 39.295 18.162 39.2884 18.162 39.2812C18.1628 39.2724 18.1628 39.2626 18.1628 39.2515L18.1637 39.2497C18.1637 39.2497 18.1637 39.2488 18.1637 39.2479C18.1686 39.1719 18.1637 39.0724 18.1469 38.9453C18.1451 38.9342 18.1421 38.9218 18.1412 38.9098C18.1283 38.8289 18.1049 38.7334 18.0677 38.6241C18.0606 38.5996 18.0527 38.5747 18.0429 38.549C18.039 38.5365 18.0354 38.5245 18.0314 38.5116C18.0137 38.4605 17.993 38.4054 17.9695 38.349C17.9624 38.3303 17.9549 38.3099 17.9469 38.289H17.9447C17.9341 38.2623 17.9235 38.2339 17.9115 38.2041C17.8947 38.1637 17.8753 38.1215 17.8576 38.0771C17.8567 38.0731 17.8536 38.0691 17.8527 38.0655V38.0633C17.7832 37.9055 17.7054 37.7371 17.6231 37.5638C17.585 37.4861 17.5465 37.4083 17.5076 37.3274C17.4691 37.2523 17.4311 37.1755 17.3917 37.0986C17.3895 37.0946 17.3877 37.0919 17.3877 37.0879L17.3859 37.087ZM21.1276 36.0672C21.6085 35.8553 22.135 35.6442 22.712 35.4345C23.015 35.3243 23.3323 35.2119 23.6628 35.1026C24.218 34.915 24.8104 34.7289 25.4436 34.5436C26.8129 34.1396 27.9031 33.8944 28.8339 33.7455C29.1498 33.6935 29.4463 33.6549 29.7299 33.6233C30.5117 33.5389 31.1921 33.5211 31.8699 33.5211C32.1146 33.5211 32.3597 33.5238 32.6101 33.5251C32.8468 33.5278 33.0849 33.5287 33.33 33.5309C33.5653 32.8341 33.4565 32.2254 33.0061 31.7237C32.1119 30.7266 30.1064 30.3009 28.0716 30.5888C27.8155 30.6239 27.5606 30.6715 27.3075 30.7306C27.0965 30.7777 26.8863 30.8359 26.6797 30.8999C26.124 31.0723 25.5993 31.1443 25.0989 31.1367C24.8281 31.1336 24.5653 31.106 24.3083 31.0598C22.662 30.7621 21.271 29.6477 19.9131 28.5599C18.8898 27.7401 17.831 26.8945 16.6891 26.4283C15.9091 26.1093 15.3007 26.1653 14.8822 26.5923C13.9805 27.5112 13.7735 30.304 15.2007 34.4569C15.4835 34.3014 15.9436 34.1881 16.5382 34.3516C17.0373 34.2116 18.7124 33.9752 21.1276 36.0672ZM22.097 36.9964C22.147 36.872 22.2067 36.7262 22.2735 36.5587C22.1253 36.6178 21.9819 36.6769 21.8426 36.7351C21.9271 36.8191 22.0116 36.9066 22.097 36.9964ZM24.2835 39.5443C24.6397 39.4883 25.0184 39.4172 25.4307 39.3297C26.5452 39.0902 27.281 38.5423 28.0597 37.9597C28.6132 37.5469 29.1764 37.1275 29.8887 36.7862H29.8896C30.1975 36.6387 30.532 36.5045 30.9063 36.3943C30.9076 36.3943 30.909 36.3921 30.9103 36.3943C31.1514 36.3214 31.4085 36.2583 31.6846 36.2072H31.6859C31.7907 36.1872 31.8982 36.1694 32.0084 36.153C33.6605 35.9086 34.9612 35.8455 35.8678 35.8455C36.6434 35.8455 37.1292 35.8908 37.299 35.9113C38.053 35.8935 38.7511 35.7411 39.3745 35.4589C39.9988 35.1772 40.5474 34.7675 41.0044 34.2352C41.784 33.3327 42.2468 32.1298 42.33 30.8123C41.2562 32.1178 39.2219 33.997 36.2407 34.2943L36.1996 34.2983C34.7028 34.4414 33.587 34.4302 32.6017 34.4205C31.8863 34.4138 31.2072 34.4076 30.4462 34.4609C30.1484 34.4818 29.8365 34.512 29.506 34.5547C28.4924 34.6835 27.2907 34.9328 25.6944 35.402C24.7989 35.6651 23.9826 35.929 23.2469 36.193C22.9681 36.9066 22.773 37.3816 22.6677 37.6358C22.9699 37.9975 23.6694 38.832 24.2835 39.5443ZM25.1675 40.3108C25.1697 40.3108 25.1706 40.3117 25.1728 40.3117C25.6829 40.4379 26.6196 40.6765 27.6429 40.9693C27.6451 40.9711 27.646 40.9711 27.6469 40.9711C27.6526 40.972 27.6588 40.9751 27.6637 40.976C27.6655 40.976 27.6655 40.976 27.6664 40.976C27.6695 40.9778 27.6734 40.9791 27.6761 40.9791C27.6841 40.9818 27.692 40.984 27.7009 40.9858L27.7017 40.9867C27.8203 41.0204 27.9371 41.056 28.057 41.0893H28.0579L28.7985 41.3151C29.3551 41.4883 29.8493 41.6568 30.2736 41.8154C30.4736 41.7279 30.8683 41.5514 31.3594 41.3279L32.2221 40.9289C32.2274 40.9009 32.2318 40.8756 32.2358 40.8489C32.2332 40.8756 32.2274 40.9022 32.2234 40.9289C32.9773 40.5739 33.8578 40.1504 34.5993 39.7571C35.024 39.5323 35.5532 39.2377 36.1138 38.9178C36.5575 38.0091 36.7292 37.2248 36.7956 36.7684C36.077 36.7271 34.4445 36.6987 32.1376 37.0386C32.1022 37.0444 32.0668 37.0493 32.0332 37.0555C32.0319 37.0555 32.0319 37.0555 32.0319 37.0555C31.7598 37.0986 31.508 37.155 31.2726 37.2217C30.9554 37.3105 30.6683 37.419 30.4015 37.5394C29.9825 37.7273 29.6188 37.9491 29.2786 38.1828C29.041 38.345 28.8154 38.5139 28.5915 38.68C27.7694 39.2919 26.9191 39.9256 25.617 40.2046C25.4511 40.2402 25.2892 40.2726 25.1325 40.3019C25.1431 40.305 25.156 40.3081 25.1675 40.3108ZM30.9731 29.477C31.0302 29.5895 31.082 29.6939 31.1311 29.7974C32.2305 30.0418 33.1065 30.4991 33.6671 31.1238C33.8467 31.3247 34.0281 31.5811 34.1573 31.893C34.0839 31.1945 33.9109 30.3995 33.545 29.6437C33.18 28.8918 33.0194 28.004 32.8482 27.062C32.6128 25.7694 32.3703 24.4372 31.5527 23.568C31.5934 23.7102 31.6275 23.848 31.6562 23.9831C32.119 26.1724 31.6779 28.4604 30.9731 29.477ZM25.0294 22.0715C24.8653 21.768 24.4251 21.2525 23.2535 20.9815C21.8222 20.6544 20.3848 20.7797 19.8383 21.2841C19.6362 21.4702 19.5618 21.6978 19.6039 22.0004C19.649 22.3199 19.8569 22.5767 20.2259 22.7633C21.2559 23.2863 23.1066 23.0952 24.533 22.3185C24.7127 22.2203 24.8772 22.1394 25.0294 22.0715ZM24.9569 23.1059C23.2712 24.0244 21.113 24.2177 19.8229 23.5623C19.6746 23.4872 19.5384 23.3965 19.4105 23.2903C19.2663 24.5021 19.3517 25.3339 19.4145 25.7152C19.7207 25.7831 20.0503 25.8827 20.4418 26.0031C21.4112 26.3035 22.6168 26.6767 23.6933 26.4581L23.8225 26.4306C24.5613 26.2777 25.3166 26.12 26.0692 26.0906C26.1546 26.0866 26.2391 26.0849 26.3244 26.0849C26.5107 26.0849 26.697 26.0946 26.8837 26.1142C27.1045 26.1368 27.323 26.1742 27.5407 26.2297C27.4102 25.8964 27.2947 25.5832 27.1925 25.3001C27.0876 25.0095 26.9965 24.7487 26.9178 24.523C26.8766 24.4065 26.8394 24.2941 26.7992 24.1861C26.5302 23.4183 26.3045 22.8437 26.0634 22.7504C26.0311 22.7384 25.9926 22.7318 25.9475 22.7318C25.7466 22.7318 25.4139 22.8566 24.9569 23.1059ZM29.8002 23.025C29.9661 24.3359 29.871 25.8373 29.5197 27.3833C29.8445 27.7054 30.1595 28.1035 30.4572 28.5697C30.8873 27.597 31.135 25.8285 30.7838 24.1701C30.6249 23.4143 30.2723 22.4145 29.4989 21.644C29.6188 22.0141 29.7122 22.4092 29.7737 22.8273L29.7768 22.8389C29.7825 22.8517 29.7865 22.8655 29.7905 22.8793L29.8148 23.0215L29.8002 23.025ZM24.6074 30.1973C24.8684 30.2369 25.1374 30.2498 25.413 30.232C25.7356 30.2124 26.0692 30.152 26.4156 30.0449C27.3398 29.7561 28.3358 29.6081 29.3029 29.6081C29.5551 29.6081 29.8042 29.6179 30.0502 29.6388C28.995 27.6899 27.8146 27.0771 26.5558 26.9989C26.2842 26.9811 26.0077 26.99 25.7289 27.0158C25.1639 27.0651 24.587 27.1851 24.0021 27.3064L23.8738 27.3339C22.5885 27.6059 21.2661 27.1962 20.2016 26.8651L20.1777 26.858C19.7003 26.7114 19.0066 26.4968 18.6964 26.5292C19.3371 26.9624 19.9445 27.4406 20.4684 27.86L20.4799 27.8712C21.8271 28.95 23.119 29.9827 24.6074 30.1973ZM14.6769 21.7857C14.5052 23.2201 15.3569 24.5821 17.0758 25.6214C17.3386 25.7311 17.6067 25.8618 17.877 26.0129C17.9487 25.924 18.0332 25.8502 18.1306 25.7929C18.2394 25.7271 18.3628 25.6818 18.504 25.6569C18.4168 24.9931 18.3571 23.7444 18.715 22.023C18.6659 21.4676 18.8455 20.9837 19.2349 20.6238C20.1879 19.7479 22.1018 19.8004 23.4517 20.1096C25.1325 20.498 25.709 21.3787 25.8984 21.8359C26.0714 21.8288 26.2293 21.8555 26.3842 21.9159C26.7943 22.0746 27.0474 22.4172 27.2916 22.973C27.4204 23.2654 27.5469 23.6174 27.692 24.0324C27.7137 24.0964 27.7371 24.1621 27.7606 24.2292C27.9805 24.862 28.2827 25.7271 28.7083 26.7269C28.7194 26.7341 28.7309 26.7429 28.7428 26.7509C29.0025 25.4254 29.0627 24.1564 28.9176 23.0704C28.8202 22.71 28.6906 22.3638 28.5287 22.0328C28.3915 21.7493 28.2318 21.4751 28.0473 21.2161C27.4841 20.4162 26.7098 19.7342 25.7493 19.2C24.3131 18.402 22.5168 17.9812 20.7834 17.9812C19.822 17.9812 18.88 18.1105 18.0292 18.3776C16.1409 18.9685 14.8565 20.274 14.6769 21.7857ZM12.3754 20.0012C9.95125 22.7562 8.9925 27.6268 10.3663 30.2191C11.8112 32.9483 13.0288 34.2227 14.5592 35.3172C12.9611 30.963 12.8355 27.4032 14.2482 25.9644C14.5406 25.6658 14.8999 25.4676 15.3029 25.3801C14.1685 24.2923 13.6341 22.9886 13.7911 21.6791C13.9637 20.2318 14.9499 18.9125 16.4595 18.0807C14.9879 17.9674 13.5881 18.6228 12.3754 20.0012ZM14.78 36.8062L14.8897 36.6178C12.7758 35.255 11.2883 33.8699 9.57828 30.639C8.02621 27.7103 9.02303 22.4607 11.7073 19.408C12.1603 18.8926 12.6413 18.4633 13.1417 18.1234C11.31 18.9717 9.61545 20.9197 8.0948 23.9266C6.58609 26.9096 6.36532 29.5295 7.44043 31.7139C8.95223 34.7853 12.7156 36.3459 14.78 36.8062ZM15.6374 37.1075L15.4087 37.4967C15.3892 37.558 15.3521 37.7118 15.3521 37.9144C15.3521 38.1037 15.3844 38.3352 15.4981 38.5805C15.7502 39.1217 16.3152 39.5572 17.1775 39.8785C17.228 39.8585 17.2766 39.8411 17.328 39.8251C17.3218 39.7296 17.3231 39.6358 17.332 39.5412C16.8656 39.0124 16.1821 38.1481 15.6374 37.1075ZM43.0158 28.1115L43.0171 28.1253C44.639 25.0637 44.7151 22.4221 44.0444 21.1214C43.5015 20.0661 42.3884 19.5124 40.739 19.4791C35.7032 19.3738 33.6335 18.6042 31.3514 16.6046C31.1607 16.4384 30.9687 16.262 30.7745 16.0767C30.4002 15.7248 30.0139 15.3395 29.6033 14.9178C27.9442 13.2222 24.9175 13.3355 22.9133 14.3059C21.524 14.9778 20.7108 15.9869 20.6569 17.0916C22.6328 17.064 24.5897 17.5328 26.1802 18.4167C26.3713 18.5233 26.5461 18.6357 26.7098 18.7419C27.473 18.953 28.1137 19.3676 28.6202 19.9803C28.6269 19.9883 28.6348 19.9981 28.6415 20.0061C28.8724 20.1039 29.091 20.215 29.2981 20.3451C29.9728 20.7588 30.524 21.3383 30.943 22.0755C33.0101 22.9642 33.3897 25.0548 33.7259 26.9025C33.8852 27.7814 34.0361 28.6119 34.3462 29.2526C34.3586 29.2793 34.3723 29.3069 34.3843 29.3353C35.0267 26.7163 36.7792 25.5032 36.8584 25.449C37.0624 25.313 37.3398 25.3672 37.476 25.5712C37.6136 25.7765 37.5592 26.0551 37.3548 26.1933C37.3305 26.2106 34.8006 27.9805 35.0608 31.893C35.0621 31.9148 35.0608 31.9325 35.0581 31.9414C35.1152 32.5702 35.1015 33.1052 35.0732 33.4855C35.4293 33.4647 35.7709 33.4402 36.1151 33.4078L36.1505 33.4038C40.1023 33.0088 42.3273 29.2957 42.3477 29.2584L43.0158 28.1115ZM0 67.3808V27.6196C0 20.2732 2.86787 13.3453 8.07843 8.113C13.2868 2.88207 20.1848 0 27.5009 0C32.9897 0 38.2423 1.62189 42.7246 4.64171C42.9423 4.78968 43.1587 4.94032 43.3737 5.09317C43.1843 5.28336 42.9994 5.46776 42.8171 5.64684C41.4141 7.02833 40.2209 8.12321 39.3404 8.82263C36.2854 11.2483 34.3356 12.9 32.7827 14.6765C32.4685 15.0369 32.1584 15.4333 31.8549 15.8607C33.8689 17.6493 35.8311 18.4798 40.7567 18.5833C42.7587 18.6255 44.1302 19.3409 44.8364 20.7095C46.1809 23.321 44.5983 27.4366 43.1896 29.5984C43.3856 31.5779 42.8361 33.4784 41.6796 34.8226C40.6832 35.9775 39.3064 36.6525 37.691 36.7804C37.6477 37.0937 37.5548 37.5932 37.3508 38.2024C38.8095 37.3519 40.1444 36.5458 40.166 36.532C40.3501 36.4209 40.5868 36.4809 40.6956 36.6631C40.7337 36.7262 40.7514 36.7951 40.7514 36.8644C40.7514 36.995 40.6846 37.1226 40.5651 37.1941C40.5377 37.211 38.6175 38.3717 36.8571 39.3839L36.6283 39.515C36.5451 39.5621 36.4637 39.6083 36.3832 39.6545C36.2036 39.7571 36.0284 39.8567 35.858 39.9513C35.7629 40.0047 35.6691 40.0566 35.578 40.1069C35.4758 40.1642 35.3762 40.2193 35.2798 40.2695C35.1683 40.3326 35.0608 40.3899 34.9586 40.4428C34.9258 40.4606 34.8922 40.4783 34.8581 40.4961C34.7829 40.5365 34.7055 40.5761 34.6281 40.6165C34.598 40.6321 34.5697 40.6459 34.5396 40.6605C34.5383 40.6618 34.5383 40.6618 34.5369 40.6636C34.5148 40.6743 34.4931 40.6854 34.4715 40.6961C34.4591 40.701 34.4484 40.7081 34.4361 40.7138C34.4091 40.7285 34.3803 40.7423 34.3533 40.7565C33.56 41.1582 32.6999 41.5643 32.0248 41.8736C31.9664 41.9012 31.9093 41.9269 31.8536 41.9536C31.0426 42.3251 30.4435 42.5859 30.4382 42.589L30.294 42.653L30.1471 42.5957C29.6109 42.3908 28.9468 42.1664 28.1738 41.9327C28.0999 41.9109 28.0265 41.8896 27.9539 41.8656C26.2528 41.3613 24.6144 40.9729 24.5976 40.9693C24.522 40.9516 24.4534 40.9111 24.4003 40.852C24.3897 40.84 24.3768 40.8263 24.3653 40.8125C24.364 40.8103 24.3622 40.8094 24.3614 40.8085C24.3574 40.8027 24.3512 40.7987 24.3476 40.7929C24.3437 40.7889 24.3406 40.7849 24.3366 40.7809C24.3357 40.7792 24.3357 40.7792 24.3339 40.7778C24.3286 40.7721 24.3229 40.7663 24.3189 40.7601C24.3162 40.7574 24.3131 40.7543 24.3114 40.7503C24.3083 40.7494 24.3065 40.7485 24.3052 40.7454C24.3025 40.7423 24.3012 40.7414 24.2985 40.7387C24.2977 40.7365 24.2977 40.7356 24.2954 40.7356C24.2937 40.7316 24.2888 40.7276 24.2866 40.7236C24.2835 40.7218 24.2835 40.721 24.2817 40.7187C24.2808 40.7178 24.2808 40.7178 24.28 40.717C24.28 40.717 24.28 40.717 24.2777 40.7147C24.2131 40.641 24.1432 40.5623 24.0707 40.4783C24.0317 40.4361 23.9933 40.3926 23.9561 40.3472C23.9189 40.305 23.8804 40.2615 23.8424 40.2162C23.7628 40.1246 23.6796 40.0291 23.596 39.9313C23.5871 39.9198 23.5765 39.9069 23.5645 39.8949V39.894C23.5637 39.8922 23.5628 39.8922 23.5628 39.8913C23.5362 39.8607 23.5097 39.83 23.4831 39.7985C23.4451 39.7532 23.4057 39.7078 23.3672 39.6625C22.6766 38.8538 21.9881 38.0268 21.9293 37.9557C21.6377 37.6269 21.3563 37.3341 21.0856 37.0733C21.0462 37.0368 21.0077 36.9991 20.9705 36.9626C20.9325 36.9284 20.8949 36.8937 20.8586 36.8604C20.7714 36.7804 20.6843 36.7036 20.5998 36.6316C20.5595 36.596 20.5184 36.5618 20.479 36.5294C20.4378 36.4938 20.3976 36.4614 20.3573 36.4276C18.8486 35.2061 17.7368 35.0275 17.1541 35.0421C17.2063 35.1319 17.2651 35.2336 17.3249 35.3421C17.3426 35.3723 17.3603 35.4038 17.378 35.4354C17.5054 35.6629 17.6456 35.9162 17.7872 36.1846C17.8244 36.2534 17.8607 36.3223 17.8978 36.3921C17.9938 36.5747 18.089 36.7618 18.1805 36.9462C18.2146 37.0128 18.2469 37.0808 18.2796 37.1479C18.3549 37.3039 18.4265 37.4585 18.4933 37.6074C18.5141 37.6536 18.5345 37.6998 18.5553 37.7451C18.5739 37.7904 18.5925 37.8349 18.6101 37.8771C18.6119 37.8793 18.6132 37.882 18.615 37.8851C18.619 37.8989 18.6239 37.9104 18.6296 37.9233C18.6699 38.0228 18.707 38.1184 18.7416 38.2104C18.7593 38.2592 18.7747 38.3059 18.7907 38.3521C18.8092 38.4081 18.8261 38.4614 18.8389 38.5116C18.8415 38.5174 18.8438 38.5236 18.8446 38.5276C18.8513 38.553 18.8584 38.5778 18.865 38.6014C18.8721 38.6298 18.8792 38.6587 18.884 38.684C18.8929 38.7214 18.8986 38.7569 18.9044 38.7907C18.9544 39.1177 18.9468 39.3937 18.8792 39.6154C18.865 39.6665 18.8455 39.7158 18.823 39.7611C18.7995 39.8145 18.7699 39.8633 18.7367 39.9091C18.7181 39.9336 18.6973 39.9562 18.677 39.9789L18.6447 40.0113C18.677 40.0713 18.715 40.1415 18.761 40.2202C18.7858 40.2655 18.8141 40.313 18.8446 40.3641C18.873 40.4103 18.9017 40.4597 18.9349 40.5121C19.126 40.8245 19.3959 41.2333 19.7667 41.7465C19.9109 41.9447 20.0476 42.1278 20.1865 42.3082C20.5892 42.8303 20.9511 43.2422 21.3236 43.5932C21.6006 43.8532 21.882 44.0798 22.193 44.2944C22.3049 44.3726 22.4195 44.4473 22.5372 44.5211C22.5823 44.5499 22.6275 44.5784 22.6739 44.6068C22.8062 44.6899 22.9407 44.7757 23.0787 44.8632C23.3008 45.0023 23.5314 45.1467 23.7707 45.2987C23.865 45.3587 23.9601 45.4191 24.0579 45.4809C24.172 45.5546 24.2888 45.6288 24.4083 45.7035C24.8861 46.007 25.3953 46.3305 25.9329 46.6722L26.2174 46.8526L26.3842 46.9588C26.5753 47.081 26.7669 47.1778 26.9562 47.2574C27.008 47.2792 27.0593 47.3 27.1111 47.3187C27.1642 47.3383 27.216 47.3569 27.2673 47.3738C27.381 47.4093 27.492 47.4409 27.5995 47.4636C27.6518 47.4764 27.7009 47.4871 27.7509 47.4969C27.8009 47.5058 27.8531 47.5156 27.9017 47.5204C28.5309 47.6191 29.0304 47.5511 29.1901 47.5236L29.1989 47.5187L29.2812 47.5058C29.3264 47.4991 33.9299 46.8486 37.2637 46.1696C38.5808 45.9008 39.8001 45.7324 40.8766 45.5844C42.61 45.3449 44.1086 45.1392 45.5058 44.6068C47.2516 43.943 47.5374 42.7476 47.8994 41.2324C47.9741 40.9129 48.0533 40.5836 48.1484 40.2517C48.1865 40.1215 48.2422 39.9442 48.313 39.7287L48.3374 39.6545C48.3537 39.6043 48.3714 39.5523 48.3891 39.499C48.5351 39.0653 48.7267 38.5116 48.9501 37.8811C48.9758 37.8073 49.0032 37.7331 49.0302 37.6562C49.32 36.8426 49.6563 35.9086 50.0084 34.9377C50.0399 34.8533 50.0699 34.7684 50.1014 34.6826C50.2292 34.332 50.3597 33.9761 50.4889 33.6206C50.5203 33.5375 50.55 33.4531 50.5814 33.3682C50.6411 33.2065 50.7 33.0461 50.7584 32.8852C50.7885 32.8026 50.8194 32.719 50.8495 32.6373C51.1353 31.8597 51.4154 31.098 51.6769 30.3915C51.7096 30.3031 51.741 30.2151 51.7733 30.1294C52.1503 29.1096 52.4812 28.2191 52.7192 27.5783C52.729 27.5517 52.7383 27.5241 52.7493 27.4988C52.8608 27.1962 52.9506 26.9549 53.0117 26.79C53.0201 26.7674 53.0281 26.7469 53.0365 26.7269C53.0378 26.7221 53.0391 26.7163 53.0418 26.7123C53.0458 26.7003 53.0497 26.6878 53.0542 26.6781C53.0772 26.6167 53.0922 26.5745 53.1002 26.5536C53.386 25.6805 53.6784 24.8016 53.9753 23.9226C54.1492 23.4067 54.3248 22.8913 54.5031 22.3749C54.6067 22.9117 54.6938 23.4538 54.7646 23.9995C54.9208 25.1908 55 26.3999 55 27.6196V67.3808C55 74.7286 52.1312 81.6556 46.9225 86.8875C41.9583 91.8735 35.4607 94.7241 28.5309 94.9813C28.4818 94.9822 28.4335 94.9849 28.3844 94.9849C28.3375 94.988 28.2884 94.9889 28.2402 94.9902C28.1353 94.9929 28.0296 94.9951 27.9243 94.996C27.8756 94.9969 27.8283 94.9987 27.7792 94.9969C27.7314 94.9987 27.6832 95 27.6349 94.9987C27.5898 95 27.5447 95 27.5009 95C27.2337 95 26.9669 94.996 26.7023 94.988C26.6147 94.9862 26.5266 94.9831 26.439 94.9791C26.3488 94.976 26.2607 94.9725 26.1714 94.9671C26.0417 94.9613 25.9121 94.9547 25.7829 94.9467C25.7258 94.9436 25.6701 94.9396 25.613 94.936C25.5573 94.932 25.5002 94.928 25.4444 94.9231C21.3493 94.6188 17.428 93.4034 13.9088 91.3767C13.6115 91.4358 13.3093 91.4812 13.0032 91.5109C12.801 91.5314 12.5961 91.5452 12.3891 91.5532C10.5317 91.6171 7.8488 91.151 5.60211 88.5578L3.96732 86.6697L6.15118 87.8699L6.08172 87.9979L6.15339 87.8721C6.17109 87.881 7.4161 88.5302 8.97789 87.7508C8.67262 87.4709 8.37265 87.1821 8.07843 86.8875C2.86787 81.6556 0 74.7286 0 67.3808Z" fill="white"/>
<path d="M86.6955 68.7592C90.6824 69.8138 93.6699 71.2855 95.6578 73.1853C97.6458 75.0746 98.6343 77.3811 98.6343 80.0936C98.6343 83.0044 97.4039 85.6839 94.9327 88.1446C92.4616 90.6158 88.8372 91.8566 84.0485 91.8566C83.1482 91.8566 81.7096 91.7905 79.7326 91.6478C78.4692 91.5712 77.7772 91.5271 77.6675 91.5271C71.0557 91.5271 66.5966 91.5932 64.2791 91.7249C63.4994 91.7249 63.1149 91.5161 63.1149 91.11C63.1149 90.9012 63.225 90.7475 63.4554 90.6703C63.6752 90.5827 64.51 90.407 65.9596 90.1541C66.8164 90.0003 67.4974 89.6378 67.9916 89.067C68.4859 88.4846 68.8594 87.3098 69.1228 85.5302C69.3752 83.751 69.5074 81.1041 69.5074 77.6009C69.5074 74.1302 69.5509 71.3296 69.6391 69.1989C69.7267 67.0787 69.7598 65.4423 69.7598 64.3111C69.7598 60.7749 69.6281 57.9411 69.3642 55.7994C69.0898 53.6578 68.7052 52.2957 68.211 51.7028C67.7167 51.1205 66.7067 50.7034 65.1689 50.4725C64.543 50.3849 64.2356 50.143 64.2356 49.759C64.2356 49.3523 64.543 49.1545 65.1689 49.1545L71.0337 49.2206C72.945 49.2206 74.7462 49.1766 76.4157 49.1C80.1828 48.9132 82.6099 48.8251 83.697 48.8251C87.6729 48.8251 90.8361 49.6929 93.1756 51.4279C95.4931 53.1635 96.6573 55.525 96.6573 58.523C96.6573 60.8735 95.8992 62.8945 94.3729 64.586C92.8461 66.277 90.2868 67.6721 86.6955 68.7592ZM75.603 51.1094C75.4052 55.7884 75.306 59.5886 75.306 62.4989L75.3391 67.2545C75.3391 67.8914 75.4272 68.298 75.614 68.4738C75.8003 68.6385 76.2945 68.7262 77.1182 68.7262C81.2258 68.7262 84.5207 67.9796 87.0029 66.4969C89.4851 65.0031 90.7265 62.5099 90.7265 59.0062C90.7265 56.0298 89.8036 53.8115 87.9589 52.3398C86.1136 50.8791 83.8182 50.143 81.0721 50.143C79.4797 50.143 77.6455 50.4615 75.603 51.1094ZM75.6245 70.275C75.328 70.8133 75.1743 71.7467 75.1743 73.0867L74.955 83.1031C74.955 86.6399 75.0426 88.6058 75.2184 89.0229C75.4052 89.4295 76.0311 89.77 77.0857 90.0554C78.1508 90.3298 79.8313 90.4725 82.1267 90.4725C84.1697 90.4725 85.8282 90.1871 87.1021 89.6163C88.387 89.0449 89.5622 87.9137 90.6273 86.2332C91.7039 84.5527 92.2422 82.5433 92.2422 80.1928C92.2422 76.7 91.2207 74.1413 89.1666 72.5043C87.1131 70.8679 84.0816 70.0441 80.0726 70.0441C78.7221 70.0441 77.2394 70.1213 75.6245 70.275ZM103.642 49.4184H119.755C120.677 49.4184 121.138 49.6157 121.138 50.0003C121.138 50.3849 120.798 50.6042 120.106 50.6703C118.579 50.824 117.448 51.2417 116.712 51.9222C115.977 52.6142 115.427 53.8225 115.043 55.5576C114.669 57.2932 114.483 61.0162 114.483 66.7167C114.483 73.5589 114.68 78.2924 115.076 80.9283C115.482 83.5643 116.723 85.6624 118.821 87.2217C120.919 88.7705 123.774 89.5502 127.388 89.5502C131.177 89.5502 134.054 88.8361 136.031 87.3975C138.008 85.9588 139.293 83.8282 139.886 80.9944C140.48 78.1717 140.776 72.0211 140.776 62.565C140.776 57.6993 140.271 54.5145 139.26 52.9988C138.25 51.494 136.756 50.7364 134.779 50.7364C133.988 50.7364 133.593 50.5056 133.593 50.0554C133.593 49.6267 134.12 49.4184 135.164 49.4184H147.948C148.53 49.4184 148.815 49.6267 148.815 50.0554C148.815 50.3628 148.585 50.5386 148.112 50.6042C146.509 50.8461 145.334 51.3623 144.576 52.153C143.829 52.9437 143.335 54.3823 143.104 56.4694C142.874 58.545 142.753 61.5986 142.753 65.6401C142.753 70.6816 142.566 74.954 142.193 78.4792C141.809 81.9939 141.007 84.6188 139.754 86.3429C138.514 88.0675 136.635 89.4626 134.142 90.5276C131.638 91.5932 128.563 92.12 124.916 92.12C121.171 92.12 117.997 91.5271 115.361 90.3298C112.736 89.1436 110.957 87.5622 110.024 85.5963C109.09 83.6304 108.618 80.698 108.618 76.7877L108.749 67.8699C108.749 59.9401 108.409 55.0964 107.739 53.3283C107.058 51.5601 105.608 50.6483 103.379 50.6042C102.654 50.6042 102.292 50.4284 102.292 50.0774C102.292 49.6378 102.742 49.4184 103.642 49.4184ZM170.518 51.1315C168.838 51.0874 167.662 51.0659 166.97 51.0659C162.325 51.0659 158.964 52.0323 156.877 53.9542C154.79 55.8871 153.571 57.5896 153.231 59.0943C153.132 59.6327 152.846 59.896 152.396 59.896C152.187 59.896 151.99 59.7974 151.803 59.5996C151.913 57.0513 152.33 53.6137 153.055 49.2862C154.087 49.2427 154.735 49.2206 155.021 49.2206C156.691 49.2206 158.931 49.3083 161.743 49.484C164.763 49.6598 169.398 49.7479 175.636 49.7479C182.028 49.7479 186.191 49.6708 188.124 49.5281C189.881 49.3634 192.297 49.2862 195.362 49.2862C195.614 50.824 195.79 52.4384 195.867 54.1079C195.999 56.0083 196.13 57.3477 196.251 58.1169C196.273 58.2927 196.284 58.4684 196.284 58.6657C196.284 59.182 196.065 59.4349 195.614 59.4349C195.34 59.4349 195.109 59.3467 194.933 59.1599C194.747 58.9737 194.329 58.3693 193.681 57.3372C192.561 55.5906 191.397 54.2727 190.189 53.3723C188.981 52.4825 187.63 51.9111 186.147 51.6478C184.653 51.3954 181.644 51.2196 177.108 51.1315C176.888 54.3718 176.779 58.0838 176.779 62.2465C176.779 76.0411 177.075 84.1687 177.657 86.6399C178.25 89.111 180.348 90.3408 183.961 90.3408C184.84 90.3408 185.279 90.5276 185.279 90.8902C185.279 91.3183 184.862 91.5271 184.027 91.5271H164.301C163.785 91.5271 163.533 91.3183 163.533 90.9122C163.533 90.5056 164.038 90.3078 165.038 90.3078C166.729 90.3078 168.102 89.8246 169.134 88.8692C170.178 87.9137 170.771 86.6288 170.935 84.9924C171.1 83.356 171.177 78.6439 171.177 70.8463C171.177 64.1904 170.957 57.6227 170.518 51.1315ZM199.689 70.1979C199.689 67.2986 200.567 64.1133 202.325 60.6537C204.082 57.183 206.652 54.3278 210.035 52.0759C213.407 49.8245 217.217 48.6934 221.468 48.6934C227.41 48.6934 232.319 50.813 236.185 55.0633C240.062 59.3142 241.995 64.1684 241.995 69.616C241.995 75.4151 239.853 80.6099 235.559 85.2117C231.276 89.8136 226.113 92.12 220.084 92.12C214.318 92.12 209.474 90.0995 205.564 86.0685C201.644 82.038 199.689 76.7441 199.689 70.1979ZM206.806 69.1438C206.806 72.6585 207.344 76.2499 208.42 79.9399C209.496 83.6304 211.188 86.3104 213.483 87.9688C215.79 89.6378 218.25 90.4725 220.875 90.4725C225.114 90.4725 228.508 88.408 231.056 84.2893C233.604 80.1707 234.878 75.4041 234.878 69.9896C234.878 64.7398 233.582 60.1269 230.979 56.162C228.376 52.1971 224.971 50.2091 220.776 50.2091C217.613 50.2091 214.977 51.2632 212.868 53.3834C210.76 55.503 209.222 58.0398 208.255 60.9831C207.289 63.927 206.806 66.6506 206.806 69.1438ZM256.646 49.6157C257.931 51.3513 260.172 54.0528 263.346 57.6993L273.659 69.6491L283.576 81.1041C283.796 77.2273 283.906 72.1858 283.906 65.9916C283.906 61.3347 283.807 58.2265 283.621 56.6452C283.423 55.0744 282.709 53.7454 281.468 52.6693C280.227 51.6037 278.678 51.0659 276.833 51.0659C275.965 51.0659 275.537 50.8791 275.537 50.5166C275.537 50.3078 275.625 50.143 275.811 50.0554C275.987 49.9562 277.437 49.8576 280.139 49.759C282.841 49.6598 285.114 49.6157 286.96 49.6157L291.297 49.6488H292.001C292.671 49.6488 293 49.8356 293 50.2091C293 50.5386 292.715 50.7364 292.132 50.802C289.968 51.0328 288.409 51.6037 287.465 52.4935C286.509 53.3834 285.938 54.6683 285.762 56.3377C285.575 58.0177 285.488 63.6521 285.488 73.2404L285.169 90.2422C285.169 91.099 284.961 91.5271 284.532 91.5271C284.422 91.5271 284.28 91.483 284.104 91.3954C283.917 91.3073 282.962 90.2202 281.226 88.1446C279.48 86.0685 277.338 83.5863 274.801 80.687C272.253 77.7982 270.254 75.4482 268.793 73.647C265.586 69.7587 263.577 67.3757 262.731 66.4748C259.623 63.1689 257.789 61.0493 257.228 60.1049C256.866 59.4569 256.525 59.1384 256.229 59.1384C256.009 59.1384 255.899 59.5555 255.899 60.3903L255.965 65.3877C255.965 71.7246 256.141 76.7877 256.482 80.5768C256.822 84.3555 257.184 86.5737 257.558 87.2327C257.931 87.8807 258.579 88.5397 259.513 89.2097C260.447 89.8797 261.435 90.2092 262.478 90.2092C263.895 90.2092 264.598 90.4615 264.598 90.9778C264.598 91.3624 264.203 91.5602 263.412 91.5602L247.958 91.5271C247.234 91.5271 246.871 91.3403 246.871 90.9778C246.871 90.5497 247.223 90.3408 247.926 90.3408C250.562 90.3408 252.319 89.759 253.198 88.5837C254.076 87.4085 254.516 84.9153 254.516 81.1041L254.274 69.7807C254.219 63.1138 254.01 59.193 253.648 58.0067C253.285 56.821 252.473 55.3818 251.21 53.6798C249.946 51.9772 248.508 51.0108 246.904 50.802C246.179 50.7144 245.817 50.5056 245.817 50.1871C245.817 49.7695 246.29 49.5501 247.223 49.5501L256.646 49.6157Z" fill="white"/>
<path d="M28.8406 114.814C28.295 113.635 27.6984 112.859 27.0515 112.485C26.4046 112.112 25.6648 111.954 24.8311 112.011C24.0835 112.069 23.3217 112.363 22.5457 112.895C21.7697 113.426 21.0226 114.109 20.3038 114.943C19.5855 115.776 18.9171 116.739 18.299 117.831C17.681 118.924 17.1348 120.045 16.6605 121.195C16.1862 122.344 15.82 123.494 15.5613 124.644C15.3021 125.794 15.1731 126.857 15.1731 127.834C15.1731 128.783 15.396 129.631 15.8415 130.378C16.2869 131.125 17.0556 131.499 18.1479 131.499C18.8956 131.528 19.6931 131.363 20.5409 131.003C21.3888 130.644 22.2513 130.141 23.1281 129.494C24.0048 128.848 24.8957 128.093 25.8012 127.231C26.7063 126.368 27.5903 125.449 28.4529 124.471C28.625 124.587 28.7687 124.759 28.8842 124.989C28.9991 125.219 29.0851 125.456 29.1428 125.7C29.2 125.944 29.2215 126.182 29.2074 126.411C29.1927 126.642 29.1281 126.828 29.0132 126.972C28.2373 127.892 27.3747 128.783 26.4261 129.645C25.478 130.507 24.4576 131.277 23.3652 131.952C22.2729 132.628 21.0945 133.174 19.8295 133.59C18.565 134.007 17.2282 134.216 15.82 134.216C14.9286 134.216 14.0665 134.101 13.2329 133.871C12.3992 133.641 11.6662 133.26 11.034 132.728C10.4018 132.196 9.89125 131.506 9.50352 130.659C9.11527 129.811 8.92114 128.755 8.92114 127.49C8.92114 125.161 9.36658 122.884 10.258 120.656C11.1489 118.428 12.3635 116.459 13.9013 114.749C15.4391 113.039 17.2208 111.688 19.2476 110.696C21.2739 109.704 23.4224 109.266 25.6931 109.381C26.987 109.438 28.0001 109.769 28.7331 110.372C29.466 110.976 30.0049 111.666 30.3496 112.442C30.5222 112.931 30.422 113.412 30.0479 113.887C29.6743 114.361 29.2719 114.67 28.8406 114.814ZM49.7921 120.936C49.9359 120.045 49.7848 119.355 49.3393 118.866C48.8934 118.378 48.2108 118.133 47.291 118.133C46.8026 118.133 46.2491 118.198 45.631 118.327C45.0129 118.457 44.4022 118.629 43.7989 118.845C43.195 119.06 42.642 119.305 42.1388 119.578C41.6357 119.851 41.2694 120.131 41.0396 120.419L41.686 118.349H36.4693L31.209 133.784H36.5123L40.3062 123.437C40.5937 122.804 40.9242 122.301 41.2983 121.928C41.6719 121.554 42.0381 121.266 42.3975 121.065C42.7569 120.864 43.1016 120.735 43.4321 120.677C43.7627 120.62 44.0434 120.591 44.2732 120.591C44.503 120.591 44.6467 120.72 44.7039 120.979C44.7616 121.238 44.7475 121.482 44.6614 121.712L40.5218 133.784H45.7821L48.4123 126.886C48.6421 126.253 48.9296 125.751 49.2743 125.377C49.6195 125.003 49.9716 124.716 50.331 124.515C50.6903 124.313 51.0277 124.184 51.3441 124.126C51.6605 124.069 51.9191 124.04 52.1201 124.04C52.3499 124.04 52.4795 124.134 52.5083 124.321C52.5367 124.507 52.5083 124.716 52.4217 124.946L50.7407 129.516C50.1368 131.154 50.1368 132.354 50.7407 133.116C51.3441 133.878 52.3357 134.259 53.7156 134.259C54.7791 134.259 55.7492 134.122 56.6259 133.849C57.5026 133.576 58.3216 133.195 59.0834 132.707C59.8452 132.218 60.5567 131.658 61.2178 131.025C61.8789 130.393 62.5252 129.703 63.158 128.955C63.3018 128.783 63.3805 128.61 63.3951 128.438C63.4093 128.266 63.3736 128.108 63.2871 127.964C63.201 127.82 63.0861 127.691 62.9424 127.576C62.7986 127.461 62.6548 127.375 62.5111 127.317C61.9938 127.863 61.4764 128.417 60.9591 128.977C60.4413 129.537 59.924 130.048 59.4066 130.507C58.8893 130.968 58.3793 131.341 57.8762 131.629C57.373 131.916 56.9061 132.06 56.4748 132.06C56.3022 132.06 56.1589 131.967 56.0435 131.78C55.9286 131.593 55.9433 131.312 56.0871 130.939L57.9837 125.334C58.329 124.069 58.2067 123.106 57.6175 122.445C57.0283 121.784 56.1589 121.453 55.0089 121.453C54.5204 121.453 53.9811 121.511 53.3919 121.626C52.8027 121.741 52.2135 121.906 51.6243 122.122C51.0351 122.337 50.4815 122.617 49.9642 122.962C49.4469 123.307 49.0156 123.71 48.6709 124.169C48.6998 124.169 48.7716 124.055 48.8865 123.825C49.0014 123.594 49.1237 123.307 49.2528 122.962C49.3824 122.617 49.4973 122.258 49.598 121.885C49.6987 121.511 49.7633 121.195 49.7921 120.936ZM59.0189 111.364L57.0787 115.244C54.5776 114.698 52.2066 114.526 49.9642 114.727C47.7223 114.929 45.4657 115.69 43.195 117.012L41.8156 114.986C44.2301 113.117 46.9101 111.889 49.8567 111.299C52.8027 110.71 55.8567 110.732 59.0189 111.364ZM73.2437 128.869C72.9273 129.531 72.4677 130.184 71.8638 130.831C71.2604 131.478 70.5993 132.06 69.8805 132.577C69.1618 133.095 68.4288 133.504 67.6817 133.806C66.9345 134.108 66.2446 134.259 65.6124 134.259C65.1811 134.259 64.7787 134.158 64.4051 133.957C64.031 133.756 63.7294 133.461 63.4996 133.073C63.2697 132.685 63.1328 132.196 63.0898 131.607C63.0468 131.018 63.1255 130.306 63.3269 129.473L67.2939 118.22H72.5107L67.9833 130.206C67.8396 130.608 67.7897 130.96 67.8328 131.262C67.8758 131.564 67.9834 131.715 68.156 131.715C68.6161 131.715 69.1618 131.42 69.7945 130.831C70.4267 130.242 71.0448 129.559 71.6482 128.783C72.252 128.007 72.7982 127.231 73.2867 126.455C73.7751 125.679 74.1057 125.104 74.2783 124.73L76.8654 118.22H81.6945L77.038 131.499C76.549 132.908 75.9814 134.244 75.335 135.509C74.6881 136.774 73.9336 137.887 73.071 138.851C72.209 139.813 71.2242 140.583 70.1177 141.157C69.0112 141.732 67.7824 142.02 66.4314 142.02C65.5116 142.02 64.7855 141.883 64.254 141.61C63.722 141.337 63.2839 140.913 62.9387 140.338C62.7377 139.993 62.6585 139.656 62.7015 139.325C62.7451 138.994 62.8526 138.7 63.0253 138.441C63.1973 138.182 63.4062 137.967 63.6507 137.795C63.8946 137.622 64.1318 137.536 64.3616 137.536C64.4482 137.679 64.4838 137.902 64.4697 138.204C64.455 138.505 64.4838 138.808 64.5557 139.109C64.6276 139.411 64.7855 139.677 65.03 139.907C65.2745 140.137 65.6837 140.252 66.2588 140.252C66.7761 140.252 67.2866 140.036 67.7897 139.605C68.2924 139.174 68.8244 138.491 69.3847 137.557C69.9451 136.623 70.5416 135.437 71.1744 134C71.8066 132.563 72.4965 130.853 73.2437 128.869ZM88.2879 107.096C89.2077 106.693 90.1274 106.47 91.0472 106.427C91.9669 106.384 92.851 106.507 93.6988 106.794C94.5467 107.081 95.3158 107.527 96.0058 108.13C96.6952 108.734 97.2561 109.467 97.6868 110.329C98.0898 111.105 98.3983 112.026 98.6139 113.089C98.8295 114.153 98.9518 115.288 98.9806 116.495C99.0095 117.702 98.9518 118.953 98.808 120.246C98.6643 121.539 98.4198 122.804 98.0751 124.04C98.6784 124.212 99.3112 124.328 99.9723 124.385C100.633 124.443 101.294 124.428 101.955 124.342L102.3 125.938C100.604 125.88 99.0525 125.693 97.6438 125.377C97.2414 126.584 96.7382 127.727 96.1348 128.804C95.5315 129.883 94.8269 130.824 94.022 131.629C93.2172 132.433 92.3189 133.073 91.3273 133.547C90.3357 134.022 89.2365 134.259 88.0293 134.259C87.0807 134.259 86.2758 134.094 85.6148 133.763C84.9537 133.432 84.4217 133.001 84.0192 132.47C83.6168 131.938 83.3367 131.327 83.1787 130.637C83.0203 129.947 82.9704 129.243 83.0276 128.524C83.1714 126.541 83.653 124.838 84.472 123.415C85.291 121.992 86.3907 120.864 87.7701 120.03C86.6783 118.881 85.8372 117.674 85.248 116.409C84.6588 115.144 84.3645 113.922 84.3645 112.744C84.3645 111.565 84.6803 110.48 85.3126 109.489C85.9453 108.497 86.9369 107.699 88.2879 107.096ZM95.6175 118.65L95.8332 119.729C94.4821 119.815 93.3179 120.117 92.3405 120.634C92.8294 121.123 93.3536 121.576 93.9145 121.992C94.4748 122.409 95.0572 122.775 95.6605 123.092C95.8043 122.2 95.8977 121.288 95.9407 120.354C95.9837 119.42 95.9769 118.529 95.9192 117.681C95.8615 116.833 95.7613 116.035 95.6175 115.288C95.4738 114.54 95.287 113.879 95.0572 113.304C94.6548 112.356 94.2088 111.494 93.7203 110.718C93.2319 109.942 92.7214 109.324 92.1899 108.863C91.6579 108.404 91.1117 108.13 90.5513 108.044C89.991 107.958 89.4517 108.145 88.9343 108.605C88.3881 109.093 88.0434 109.719 87.8997 110.48C87.7559 111.242 87.7701 112.09 87.9427 113.024C88.1153 113.958 88.4459 114.921 88.9343 115.913C89.4233 116.904 90.0267 117.875 90.7455 118.823C92.1825 118.478 93.8069 118.421 95.6175 118.65ZM88.2449 127.705C88.1872 128.136 88.1945 128.575 88.2664 129.02C88.3378 129.465 88.46 129.868 88.6326 130.227C88.8053 130.587 89.0209 130.874 89.2796 131.09C89.5382 131.305 89.8399 131.37 90.1851 131.284C91.5356 130.968 92.628 130.206 93.4617 128.998C94.2954 127.791 94.9134 126.368 95.3158 124.73C94.3961 124.414 93.5194 124.047 92.6857 123.631C91.852 123.214 91.076 122.747 90.3572 122.229C89.2937 123.523 88.5896 125.348 88.2449 127.705ZM104.453 134.302C103.476 134.302 102.721 134.094 102.189 133.676C101.657 133.26 101.392 132.606 101.392 131.715C101.392 131.284 101.492 130.666 101.694 129.861C101.895 129.056 102.153 128.172 102.47 127.209C102.786 126.247 103.131 125.254 103.504 124.235C103.878 123.214 104.223 122.272 104.539 121.41C104.855 120.548 105.129 119.822 105.358 119.233C105.588 118.644 105.718 118.292 105.746 118.177L111.05 118.22L106.48 130.896C106.364 131.212 106.364 131.478 106.48 131.693C106.595 131.909 106.767 132.017 106.997 132.017C107.399 132.103 107.895 131.973 108.484 131.629C109.074 131.284 109.649 130.853 110.209 130.335C110.769 129.818 111.273 129.264 111.718 128.675C112.163 128.086 112.458 127.59 112.602 127.188L115.922 118.177L121.096 118.22L116.784 130.68C116.64 131.111 116.655 131.435 116.827 131.65C117 131.866 117.287 131.873 117.69 131.672C117.977 131.499 118.329 131.255 118.746 130.939C119.163 130.622 119.58 130.278 119.996 129.904C120.413 129.531 120.816 129.15 121.203 128.761C121.592 128.374 121.93 128.036 122.217 127.748C122.533 127.921 122.734 128.208 122.82 128.61C122.906 129.013 122.835 129.344 122.605 129.602C122.087 130.177 121.555 130.738 121.009 131.284C120.464 131.83 119.881 132.319 119.263 132.75C118.645 133.181 117.999 133.533 117.323 133.806C116.648 134.079 115.95 134.216 115.232 134.216C114.485 134.216 113.895 134.108 113.464 133.892C113.033 133.676 112.717 133.382 112.515 133.009C112.315 132.634 112.221 132.189 112.235 131.672C112.25 131.154 112.343 130.579 112.515 129.947C111.164 131.499 109.857 132.613 108.592 133.289C107.328 133.964 105.948 134.302 104.453 134.302ZM141.529 131.629C141.874 131.514 142.298 131.255 142.801 130.853C143.304 130.45 143.808 130.026 144.31 129.581C144.813 129.135 145.266 128.704 145.669 128.287C146.071 127.87 146.344 127.576 146.488 127.404C146.804 127.547 147.048 127.784 147.221 128.114C147.393 128.445 147.364 128.755 147.135 129.042C146.359 129.904 145.64 130.644 144.979 131.262C144.318 131.88 143.649 132.39 142.974 132.793C142.298 133.195 141.587 133.497 140.84 133.698C140.092 133.899 139.259 134 138.339 134C137.247 134 136.413 133.734 135.838 133.202C135.263 132.671 135.005 131.858 135.062 130.767C135.062 130.163 135.249 129.344 135.623 128.309C135.996 127.274 136.399 126.225 136.83 125.161C136.197 126.426 135.515 127.59 134.782 128.654C134.049 129.717 133.258 130.644 132.41 131.435C131.562 132.225 130.657 132.85 129.694 133.31C128.731 133.77 127.732 134.014 126.698 134.043C125.835 134.072 125.045 133.856 124.326 133.396C123.607 132.937 123.069 132.347 122.709 131.629C122.35 130.91 122.221 130.12 122.321 129.257C122.422 128.395 122.846 127.576 123.593 126.8C123.823 126.57 124.139 126.405 124.542 126.304C124.944 126.203 125.382 126.153 125.857 126.153C126.331 126.153 126.813 126.182 127.301 126.239C127.79 126.296 128.235 126.383 128.638 126.498C128.35 126.584 128.063 126.778 127.775 127.08C127.488 127.382 127.244 127.741 127.042 128.158C126.841 128.575 126.683 129.006 126.568 129.451C126.453 129.897 126.41 130.292 126.439 130.637C126.468 130.982 126.575 131.255 126.762 131.456C126.949 131.657 127.258 131.715 127.689 131.629C128.494 131.456 129.22 131.147 129.867 130.702C130.513 130.256 131.117 129.725 131.677 129.107C132.238 128.489 132.748 127.813 133.208 127.08C133.668 126.347 134.099 125.635 134.502 124.946C134.272 125.061 134.049 125.154 133.833 125.226C133.618 125.298 133.409 125.363 133.208 125.42C132.058 125.822 131.059 125.916 130.211 125.7C129.364 125.485 128.688 125.068 128.185 124.45C127.682 123.832 127.351 123.077 127.194 122.186C127.036 121.295 127.064 120.376 127.28 119.427C127.495 118.478 127.912 117.551 128.53 116.646C129.148 115.74 129.974 114.972 131.009 114.339C132.389 113.477 133.632 112.988 134.739 112.873C135.845 112.758 136.765 112.895 137.498 113.283C138.231 113.671 138.77 114.275 139.115 115.094C139.46 115.913 139.575 116.84 139.46 117.875C139.402 118.45 139.273 119.118 139.072 119.88C138.87 120.641 138.626 121.381 138.339 122.1L143.556 122.143L140.495 130.335C140.322 130.824 140.308 131.219 140.451 131.521C140.595 131.823 140.954 131.858 141.529 131.629ZM134.07 123.264C134.3 123.207 134.552 123.121 134.825 123.006C135.098 122.89 135.392 122.761 135.709 122.618C136.082 121.784 136.413 120.965 136.7 120.16C136.988 119.355 137.167 118.607 137.239 117.918C137.311 117.228 137.268 116.632 137.11 116.128C136.952 115.625 136.629 115.259 136.14 115.029C135.853 114.914 135.522 114.9 135.148 114.986C134.774 115.072 134.372 115.302 133.941 115.676C133.251 116.251 132.684 117.019 132.238 117.983C131.792 118.945 131.541 119.865 131.484 120.742C131.426 121.619 131.591 122.323 131.979 122.855C132.367 123.386 133.065 123.523 134.07 123.264ZM184.15 131.327C183.806 131.93 183.554 132.577 183.396 133.267C183.238 133.957 183.194 134.618 183.094 135.229C182.42 139.323 180.024 139.481 177.286 139.885L176.64 138.462C179.552 137.326 179.577 136.127 181.003 133.698C180.141 134.043 179.12 134.216 177.941 134.216C176.677 134.216 175.693 133.993 174.988 133.547C174.284 133.102 173.795 132.498 173.522 131.736C173.249 130.975 173.17 130.105 173.285 129.128C173.4 128.151 173.63 127.145 173.975 126.11C173.659 126.915 173.213 127.784 172.639 128.718C172.064 129.653 171.388 130.515 170.612 131.305C169.836 132.096 168.981 132.757 168.047 133.289C167.112 133.82 166.128 134.086 165.093 134.086C164.116 134.086 163.369 133.871 162.851 133.439C162.334 133.009 161.982 132.448 161.795 131.758C161.608 131.068 161.565 130.292 161.666 129.43C161.766 128.568 161.96 127.705 162.248 126.843C162.995 124.63 163.799 122.438 164.662 120.268C165.524 118.097 166.315 115.906 167.033 113.692C167.263 112.945 167.314 112.435 167.184 112.162C167.055 111.889 166.818 111.752 166.473 111.752C165.869 111.752 165.251 112.032 164.619 112.593C163.986 113.154 163.39 113.822 162.829 114.598C162.269 115.374 161.766 116.186 161.32 117.034C160.875 117.882 160.523 118.593 160.264 119.168C159.833 119.139 159.388 119.031 158.927 118.845C158.468 118.658 158.087 118.428 157.785 118.155C157.483 117.882 157.289 117.565 157.203 117.206C157.117 116.847 157.217 116.466 157.505 116.064C158.223 115.086 159.057 114.174 160.006 113.326C160.954 112.478 161.967 111.738 163.045 111.105C164.123 110.473 165.251 109.985 166.43 109.639C167.608 109.295 168.786 109.137 169.965 109.165C171.173 109.223 172.042 109.431 172.574 109.79C173.105 110.15 173.429 110.609 173.544 111.17C173.659 111.731 173.615 112.37 173.415 113.089C173.213 113.807 172.969 114.54 172.682 115.288L167.982 128.179C167.608 129.185 167.766 129.688 168.456 129.688C168.743 129.688 169.052 129.559 169.383 129.3C169.714 129.042 170.059 128.718 170.418 128.33C170.777 127.942 171.136 127.504 171.496 127.015C171.855 126.527 172.193 126.067 172.509 125.635C173.429 124.342 174.32 122.704 175.182 120.72C176.045 118.737 176.893 116.595 177.726 114.296C177.985 113.577 178.244 112.866 178.502 112.162C178.761 111.458 179.02 110.732 179.278 109.985L185.444 110.028L178.89 128.179C178.43 129.444 178.33 130.429 178.588 131.133C178.847 131.837 179.436 132.117 180.356 131.973C181.132 131.83 181.808 131.506 182.383 131.003C182.958 130.501 183.604 129.674 184.323 128.524C184.438 128.582 184.56 128.654 184.689 128.74C184.819 128.826 184.927 128.948 185.013 129.107C185.099 129.264 185.128 129.444 185.099 129.645C185.07 129.846 184.955 130.091 184.754 130.378C184.61 130.579 184.473 130.767 184.344 130.939C184.215 131.111 184.078 131.284 183.935 131.456L184.15 131.327ZM196.78 119.383C197.268 119.183 197.843 118.873 198.505 118.457C199.166 118.04 199.805 117.573 200.423 117.056C201.041 116.538 201.588 115.985 202.062 115.395C202.536 114.806 202.816 114.239 202.902 113.692C202.96 113.434 202.953 113.211 202.881 113.024C202.809 112.837 202.716 112.744 202.601 112.744C202.227 112.744 201.76 113.002 201.199 113.52C200.639 114.038 200.078 114.655 199.518 115.374C198.957 116.093 198.425 116.826 197.923 117.573C197.42 118.32 197.039 118.924 196.78 119.383ZM195.831 121.238C195.285 122.272 194.826 123.221 194.452 124.083C194.078 124.946 193.776 125.765 193.546 126.541C193.317 127.317 193.151 128.071 193.051 128.804C192.95 129.537 192.9 130.306 192.9 131.111C192.9 131.6 192.971 131.924 193.115 132.081C193.259 132.239 193.489 132.304 193.805 132.276C194.294 132.247 194.832 132.038 195.422 131.65C196.011 131.262 196.593 130.767 197.168 130.163C197.743 129.559 198.275 128.912 198.763 128.223C199.252 127.533 199.64 126.871 199.927 126.239C199.266 125.866 198.814 125.377 198.569 124.773C198.325 124.169 198.239 123.559 198.31 122.941C198.382 122.323 198.613 121.733 199 121.173C199.389 120.613 199.899 120.203 200.531 119.944C201.135 119.686 201.702 119.635 202.234 119.793C202.766 119.951 203.075 120.404 203.161 121.152C203.219 121.755 203.19 122.344 203.075 122.919C202.96 123.494 202.773 124.169 202.515 124.946C204.067 125.032 205.647 124.701 207.257 123.954C207.315 124.184 207.329 124.45 207.3 124.752C207.272 125.054 207.099 125.276 206.783 125.42C206.036 125.765 205.303 126.009 204.584 126.153C203.866 126.296 203.003 126.383 201.997 126.411C201.566 127.36 201.012 128.302 200.337 129.236C199.661 130.17 198.893 131.003 198.03 131.736C197.168 132.47 196.212 133.066 195.163 133.526C194.114 133.985 193.014 134.216 191.865 134.216C190.542 134.216 189.501 133.799 188.739 132.965C187.977 132.132 187.596 131.025 187.596 129.645C187.596 128.524 187.79 127.295 188.179 125.959C188.566 124.622 189.113 123.279 189.817 121.928C190.521 120.577 191.354 119.262 192.318 117.983C193.28 116.703 194.322 115.568 195.443 114.576C196.564 113.585 197.743 112.787 198.979 112.183C200.215 111.58 201.479 111.249 202.773 111.192C203.808 111.192 204.548 111.35 204.994 111.666C205.439 111.982 205.576 112.644 205.403 113.649C205.231 114.598 204.735 115.496 203.916 116.344C203.096 117.192 202.169 117.954 201.135 118.629C200.1 119.305 199.087 119.872 198.095 120.332C197.103 120.792 196.349 121.094 195.831 121.238ZM212.04 124.342C212.5 124.169 213.003 123.932 213.549 123.631C214.095 123.329 214.605 122.984 215.079 122.596C215.554 122.208 215.949 121.805 216.265 121.389C216.581 120.972 216.739 120.577 216.739 120.203C216.739 119.829 216.567 119.643 216.222 119.643C215.82 119.643 215.417 119.815 215.015 120.16C214.612 120.505 214.224 120.929 213.851 121.432C213.477 121.935 213.132 122.452 212.816 122.984C212.5 123.516 212.241 123.969 212.04 124.342ZM221.094 128.697C220.519 129.444 219.879 130.155 219.175 130.831C218.471 131.506 217.717 132.089 216.912 132.577C216.107 133.066 215.245 133.454 214.325 133.741C213.405 134.029 212.442 134.173 211.436 134.173C210.602 134.173 209.826 134.072 209.108 133.871C208.389 133.67 207.771 133.353 207.254 132.922C206.737 132.491 206.334 131.945 206.047 131.284C205.759 130.622 205.615 129.832 205.615 128.912C205.615 127.504 205.853 126.139 206.327 124.816C206.801 123.494 207.491 122.323 208.397 121.303C209.302 120.282 210.423 119.47 211.76 118.866C213.096 118.263 214.627 117.961 216.351 117.961C217.3 117.961 218.148 118.177 218.895 118.607C219.642 119.039 220.016 119.628 220.016 120.376C219.988 121.152 219.671 121.863 219.068 122.509C218.464 123.156 217.731 123.717 216.868 124.191C216.006 124.665 215.094 125.046 214.131 125.334C213.168 125.621 212.299 125.794 211.523 125.851C211.235 126.455 211.026 127.152 210.897 127.942C210.768 128.732 210.703 129.43 210.703 130.033C210.703 130.292 210.732 130.558 210.789 130.831C210.847 131.104 210.955 131.356 211.113 131.586C211.271 131.815 211.494 132.002 211.781 132.146C212.069 132.29 212.457 132.362 212.945 132.362C213.578 132.362 214.239 132.175 214.928 131.801C215.618 131.427 216.294 130.968 216.955 130.421C217.616 129.875 218.248 129.286 218.852 128.654C219.456 128.022 219.988 127.447 220.447 126.929C220.792 127.073 221.03 127.346 221.159 127.748C221.288 128.151 221.267 128.467 221.094 128.697ZM239.803 120.936C239.947 120.045 239.796 119.355 239.35 118.866C238.905 118.378 238.222 118.133 237.302 118.133C236.814 118.133 236.261 118.198 235.643 118.327C235.025 118.457 234.413 118.629 233.81 118.845C233.207 119.06 232.653 119.305 232.15 119.578C231.647 119.851 231.28 120.131 231.051 120.419L231.697 118.349H226.48L221.22 133.784H226.523L230.318 123.437C230.605 122.804 230.936 122.301 231.309 121.928C231.683 121.554 232.05 121.266 232.409 121.065C232.768 120.864 233.113 120.735 233.444 120.677C233.774 120.62 234.054 120.591 234.284 120.591C234.514 120.591 234.658 120.72 234.715 120.979C234.773 121.238 234.758 121.482 234.672 121.712L230.533 133.784H235.793L238.423 126.886C238.653 126.253 238.941 125.751 239.286 125.377C239.631 125.003 239.983 124.716 240.342 124.515C240.701 124.313 241.039 124.184 241.355 124.126C241.671 124.069 241.93 124.04 242.131 124.04C242.361 124.04 242.491 124.134 242.519 124.321C242.548 124.507 242.519 124.716 242.433 124.946L240.752 129.516C240.148 131.154 240.148 132.354 240.752 133.116C241.355 133.878 242.347 134.259 243.727 134.259C244.79 134.259 245.76 134.122 246.637 133.849C247.514 133.576 248.333 133.195 249.094 132.707C249.856 132.218 250.568 131.658 251.229 131.025C251.89 130.393 252.537 129.703 253.169 128.955C253.313 128.783 253.392 128.61 253.406 128.438C253.42 128.266 253.385 128.108 253.298 127.964C253.212 127.82 253.097 127.691 252.953 127.576C252.81 127.461 252.666 127.375 252.522 127.317C252.005 127.863 251.487 128.417 250.97 128.977C250.453 129.537 249.936 130.048 249.418 130.507C248.9 130.968 248.39 131.341 247.887 131.629C247.384 131.916 246.917 132.06 246.486 132.06C246.314 132.06 246.17 131.967 246.055 131.78C245.94 131.593 245.954 131.312 246.098 130.939L247.995 125.334C248.34 124.069 248.218 123.106 247.629 122.445C247.039 121.784 246.17 121.453 245.02 121.453C244.531 121.453 243.993 121.511 243.403 121.626C242.814 121.741 242.225 121.906 241.635 122.122C241.046 122.337 240.493 122.617 239.976 122.962C239.458 123.307 239.027 123.71 238.682 124.169C238.711 124.169 238.783 124.055 238.898 123.825C239.012 123.594 239.135 123.307 239.264 122.962C239.393 122.617 239.508 122.258 239.609 121.885C239.71 121.511 239.774 121.195 239.803 120.936ZM249.03 111.364L247.09 115.244C244.589 114.698 242.218 114.526 239.976 114.727C237.733 114.929 235.477 115.69 233.207 117.012L231.827 114.986C234.241 113.117 236.922 111.889 239.868 111.299C242.814 110.71 245.868 110.732 249.03 111.364ZM265.367 118.435C265.597 118.205 265.856 117.946 266.143 117.659C266.431 117.372 266.69 117.127 266.919 116.926C267.322 117.156 267.883 117.415 268.601 117.702C269.32 117.989 270.038 118.133 270.757 118.133C271.102 118.133 271.505 118.105 271.964 118.047C272.424 117.989 272.855 117.918 273.258 117.831C273.028 118.349 272.755 118.823 272.438 119.254C272.123 119.686 271.533 120.088 270.671 120.462C270.383 120.605 270.002 120.706 269.528 120.763C269.054 120.821 268.644 120.821 268.299 120.763C268.385 122.028 268.271 123.437 267.954 124.989C267.638 126.541 267.085 128.007 266.295 129.387C265.504 130.767 264.462 131.924 263.169 132.857C261.875 133.792 260.294 134.259 258.426 134.259C257.477 134.259 256.644 134.094 255.925 133.763C255.206 133.432 254.603 133.001 254.114 132.47C253.625 131.938 253.259 131.327 253.015 130.637C252.77 129.947 252.634 129.243 252.605 128.524C252.548 126.771 252.85 125.211 253.511 123.846C254.172 122.481 255.091 121.36 256.27 120.483C257.449 119.606 258.821 118.988 260.387 118.629C261.954 118.27 263.614 118.205 265.367 118.435ZM264.807 120.332C262.709 120.476 261.042 121.231 259.806 122.596C258.569 123.961 257.923 125.866 257.865 128.309C257.836 129.142 258.031 129.846 258.447 130.421C258.864 130.996 259.403 131.284 260.064 131.284C260.898 131.284 261.631 130.982 262.263 130.378C262.895 129.774 263.42 129.042 263.837 128.179C264.254 127.317 264.57 126.411 264.786 125.463C265.001 124.515 265.123 123.695 265.152 123.006C265.181 122.546 265.166 122.05 265.109 121.518C265.051 120.986 264.95 120.591 264.807 120.332Z" fill="#E5097F"/>
<path d="M280.799 119.383C281.288 119.182 281.863 118.873 282.524 118.457C283.185 118.04 283.824 117.573 284.443 117.056C285.061 116.538 285.607 115.985 286.081 115.395C286.555 114.806 286.836 114.239 286.922 113.692C286.979 113.434 286.972 113.211 286.9 113.024C286.828 112.837 286.735 112.744 286.62 112.744C286.246 112.744 285.779 113.002 285.219 113.52C284.658 114.038 284.098 114.655 283.537 115.374C282.977 116.093 282.445 116.826 281.942 117.573C281.439 118.32 281.058 118.924 280.799 119.383ZM279.851 121.238C279.304 122.272 278.845 123.221 278.471 124.083C278.097 124.946 277.796 125.765 277.566 126.541C277.336 127.317 277.17 128.071 277.07 128.804C276.969 129.537 276.919 130.306 276.919 131.111C276.919 131.6 276.991 131.923 277.134 132.081C277.278 132.239 277.508 132.304 277.824 132.276C278.313 132.247 278.852 132.038 279.441 131.65C280.031 131.262 280.612 130.767 281.188 130.163C281.763 129.559 282.294 128.912 282.782 128.222C283.271 127.533 283.659 126.871 283.947 126.239C283.286 125.866 282.833 125.377 282.589 124.773C282.344 124.169 282.258 123.559 282.33 122.941C282.402 122.323 282.632 121.733 283.02 121.173C283.408 120.613 283.918 120.203 284.551 119.944C285.154 119.686 285.722 119.635 286.254 119.793C286.785 119.951 287.094 120.404 287.18 121.152C287.238 121.755 287.209 122.344 287.094 122.919C286.979 123.494 286.793 124.169 286.534 124.946C288.086 125.032 289.667 124.701 291.276 123.954C291.334 124.184 291.348 124.45 291.32 124.752C291.291 125.054 291.118 125.276 290.802 125.42C290.055 125.765 289.322 126.009 288.603 126.153C287.885 126.296 287.022 126.383 286.017 126.411C285.585 127.36 285.032 128.302 284.356 129.236C283.681 130.17 282.912 131.003 282.05 131.736C281.188 132.47 280.232 133.066 279.182 133.526C278.133 133.985 277.034 134.216 275.884 134.216C274.562 134.216 273.52 133.799 272.758 132.965C271.996 132.132 271.615 131.025 271.615 129.645C271.615 128.524 271.81 127.295 272.198 125.959C272.586 124.622 273.132 123.279 273.836 121.928C274.54 120.577 275.374 119.262 276.337 117.983C277.3 116.703 278.342 115.568 279.463 114.576C280.584 113.585 281.763 112.787 282.998 112.183C284.234 111.58 285.499 111.249 286.793 111.192C287.827 111.192 288.567 111.35 289.013 111.666C289.458 111.982 289.595 112.644 289.423 113.649C289.25 114.598 288.754 115.496 287.935 116.344C287.116 117.192 286.189 117.954 285.154 118.629C284.119 119.305 283.106 119.872 282.115 120.332C281.122 120.792 280.368 121.094 279.851 121.238Z" fill="#E5097F"/>
</svg>
